<?xml version="1.0" encoding="utf-8"?>
<!-- Generator: Adobe Illustrator 27.5.0, SVG Export Plug-In . SVG Version: 6.00 Build 0)  -->
<svg version="1.1" id="Capa_1" xmlns="http://www.w3.org/2000/svg" xmlns:xlink="http://www.w3.org/1999/xlink" x="0px" y="0px"
	 viewBox="0 0 2122 2122" style="enable-background:new 0 0 2122 2122;" xml:space="preserve">
<path style="fill:#007EA4;" d="M1060.66,1999.026c463.3,0,838.88-78.249,838.88-174.774c0-3.384-0.511-6.742-1.421-10.078
	c-25.066,81.821-390.398,146.739-837.458,146.739s-812.393-64.918-837.459-146.739c-0.91,3.336-1.421,6.694-1.421,10.078
	C221.78,1920.776,597.36,1999.026,1060.66,1999.026z"/>
<path style="fill:#009DC8;" d="M1060.66,1960.913c447.06,0,812.392-64.918,837.458-146.739c0.91-2.972,1.421-5.964,1.421-8.979
	c0-41.661-88.136-79.5-231.684-107.444c-3.643,10.585-7.722,20.698-12.148,30.343c0.005-0.005,0.01-0.008,0.016-0.012
	c-0.122,0.266-0.254,0.519-0.377,0.785c-2.083,4.505-4.266,8.873-6.509,13.15c-0.034,0.064-0.068,0.128-0.102,0.192
	c-0.922,1.752-1.822,3.535-2.779,5.233c49.421,17.222,77.467,36.878,77.467,57.753c0,67.945-296.729,123.026-662.763,123.026
	s-662.763-55.081-662.763-123.026c0-22.68,33.1-43.922,90.766-62.165c-2.202-3.426-4.368-6.942-6.5-10.538
	c-0.009-0.016-0.019-0.032-0.029-0.049c-2.245-3.788-4.431-7.701-6.588-11.67c-0.251-0.462-0.517-0.893-0.766-1.357
	c0.027,0.029,0.054,0.053,0.081,0.082c-4.069-7.562-7.982-15.407-11.652-23.599c-149.273,28.113-241.429,66.705-241.429,109.297
	c0,3.014,0.511,6.007,1.421,8.979C248.268,1895.995,613.6,1960.913,1060.66,1960.913z"/>
<path style="fill:#007EA4;" d="M1641.802,1754.37c-2.387,3.865-4.828,7.638-7.379,11.226c-0.274,0.388-0.552,0.767-0.828,1.152
	c-2.498,3.458-5.049,6.823-7.708,9.985c-0.09,0.107-0.183,0.21-0.273,0.317c-1.659,1.961-3.352,3.855-5.075,5.692
	c-0.352,0.377-0.703,0.755-1.058,1.126c-1.857,1.938-3.738,3.828-5.67,5.616c-0.068,0.063-0.137,0.121-0.205,0.184
	c-2.718,2.505-5.504,4.87-8.369,7.061c-0.098,0.074-0.198,0.141-0.295,0.215c-2.877,2.186-5.821,4.225-8.848,6.076
	c0,0-516.684,120.558-1056.727,0c-2.763-2.397-5.538-4.939-8.316-7.614c-0.086-0.083-0.172-0.171-0.259-0.254
	c-2.703-2.611-5.409-5.351-8.109-8.216c-0.119-0.126-0.237-0.257-0.355-0.384c-2.68-2.855-5.353-5.833-8.013-8.932
	c-0.113-0.131-0.224-0.266-0.336-0.397c-2.674-3.127-5.332-6.374-7.969-9.741c-0.086-0.109-0.17-0.22-0.256-0.33
	c-2.662-3.409-5.3-6.939-7.908-10.585c-0.059-0.083-0.118-0.167-0.178-0.25c-2.636-3.694-5.238-7.507-7.8-11.437
	c-0.027-0.041-0.054-0.082-0.081-0.123c-0.375-0.575-0.75-1.147-1.123-1.727c-57.666,18.243-90.766,39.485-90.766,62.165
	c0,67.945,296.729,123.026,662.763,123.026s662.763-55.081,662.763-123.026c0-20.875-28.046-40.531-77.467-57.753
	c-1.313,2.328-2.691,4.551-4.066,6.781C1641.86,1754.271,1641.832,1754.321,1641.802,1754.37z"/>
<path style="fill:#009DC8;" d="M1179.243,453.734l6.217-27.651l-47.351,23.649l-4.53,20.148c2.705,0.859,5.411,1.727,8.119,2.606
	L1179.243,453.734z"/>
<path style="fill:#009DC8;" d="M1213.177,302.812l-2.802,12.465l18-80.055c-0.946,4.209-10.67,5.607-21.719,3.123
	c-11.049-2.484-19.238-7.91-18.292-12.119l-26.027,115.753l3.489-15.517L1213.177,302.812z"/>
<polygon style="fill:#009DC8;" points="1177.138,276.155 1224.489,252.505 1219.395,275.161 1172.044,298.811 "/>
<polygon style="fill:#009DC8;" points="1196.772,375.776 1149.421,399.425 1154.515,376.769 1201.866,353.12 1208.084,325.468 
	1160.732,349.118 1143.204,427.076 1190.554,403.427 "/>
<path style="fill:#009DC8;" d="M1172.681,482.918l1.468-6.528l-8.33,4.16C1168.107,481.338,1170.394,482.119,1172.681,482.918z"/>
<path style="fill:#007EA4;" d="M1165.819,480.55l8.33-4.16l5.094-22.656l-37.545,18.752
	C1149.735,475.092,1157.779,477.783,1165.819,480.55z"/>
<polygon style="fill:#007EA4;" points="1190.554,403.427 1190.554,403.427 1143.204,427.076 1143.118,427.459 1138.109,449.732 
	1185.46,426.083 "/>
<polygon style="fill:#007EA4;" points="1149.421,399.425 1196.772,375.776 1199.616,363.125 1201.866,353.12 1154.515,376.769 "/>
<polygon style="fill:#007EA4;" points="1210.375,315.277 1213.177,302.812 1165.827,326.462 1162.338,341.979 1160.732,349.118 
	1208.084,325.468 "/>
<polygon style="fill:#007EA4;" points="1224.489,252.505 1177.138,276.155 1172.044,298.811 1219.395,275.161 "/>
<path style="fill:#007EA4;" d="M1206.656,238.345c11.049,2.484,20.773,1.086,21.719-3.123c0.868-3.861-5.983-8.717-15.643-11.416
	l-1.691,7.519l-5.345-1.202l1.691-7.518c-9.885-1.695-18.154-0.239-19.023,3.621
	C1187.418,230.434,1195.607,235.861,1206.656,238.345z"/>
<path style="fill:#006A8A;" d="M1211.042,231.325l1.691-7.519l4.225-18.789c-0.909-0.083-1.817-0.126-2.733-0.331
	c-0.916-0.206-1.755-0.556-2.613-0.871l-4.225,18.79l-1.691,7.518L1211.042,231.325z"/>
<path style="fill:#E7A95E;" d="M1216.957,205.017c10.346,0.938,20.044-5.817,22.385-16.227c2.546-11.325-6.591-66.495-6.591-66.495
	s-31.874,45.948-34.421,57.273c-2.341,10.41,3.531,20.665,13.283,24.247c0.858,0.315,1.697,0.665,2.613,0.871
	C1215.14,204.891,1216.048,204.934,1216.957,205.017z"/>
<path style="fill:#E28055;" d="M1229.554,190.587c1.438-6.393-3.72-37.533-3.72-37.533s-17.992,25.935-19.429,32.328
	c-1.437,6.392,2.58,12.74,8.972,14.177C1221.77,200.996,1228.117,196.979,1229.554,190.587z"/>
<path style="fill:#009DC8;" d="M1323.296,310.67c-0.946,4.209-10.67,5.607-21.719,3.123c-11.049-2.484-19.238-7.91-18.292-12.119
	l-11.226,49.929l47.351-23.649L1323.296,310.67z"/>
<polygon style="fill:#009DC8;" points="1305.586,389.435 1314.316,350.609 1266.965,374.259 1260.748,401.909 1308.099,378.26 "/>
<polygon style="fill:#009DC8;" points="1283.397,488.115 1291.693,451.224 1244.342,474.873 1249.436,452.217 1296.787,428.567 
	1303.004,400.916 1255.653,424.566 1238.125,502.524 1285.476,478.875 "/>
<path style="fill:#009DC8;" d="M1275.611,522.743l4.77-21.212l-25.354,12.663C1261.95,517.021,1268.809,519.874,1275.611,522.743z"
	/>
<path style="fill:#007EA4;" d="M1280.381,501.531L1280.381,501.531l3.016-13.415l2.078-9.241l-47.351,23.649l-1.007,4.476
	c6.002,2.379,11.98,4.774,17.91,7.195L1280.381,501.531z"/>
<polygon style="fill:#007EA4;" points="1244.342,474.873 1291.693,451.224 1294.652,438.062 1296.787,428.567 1249.436,452.217 "/>
<polygon style="fill:#007EA4;" points="1303.004,400.916 1305.586,389.435 1308.099,378.26 1260.748,401.909 1260.748,401.909 
	1260.273,404.021 1255.653,424.566 1303.004,400.916 "/>
<polygon style="fill:#007EA4;" points="1316.078,342.774 1319.41,327.953 1272.059,351.602 1272.059,351.602 1270.296,359.443 
	1266.965,374.259 1314.316,350.609 "/>
<path style="fill:#007EA4;" d="M1301.577,313.793c11.049,2.484,20.773,1.086,21.719-3.123c0.868-3.861-5.984-8.717-15.643-11.416
	l-1.691,7.519l-5.346-1.202l1.691-7.519c-9.884-1.695-18.154-0.239-19.022,3.621
	C1282.339,305.883,1290.528,311.308,1301.577,313.793z"/>
<path style="fill:#006A8A;" d="M1305.963,306.772l1.691-7.519l4.225-18.789c-0.91-0.082-1.817-0.126-2.733-0.331
	c-0.916-0.206-1.755-0.556-2.613-0.871l-4.225,18.789l-1.691,7.519L1305.963,306.772z"/>
<path style="fill:#E7A95E;" d="M1311.878,280.464c10.346,0.938,20.044-5.817,22.384-16.227c2.546-11.325-6.591-66.495-6.591-66.495
	s-31.874,45.948-34.421,57.274c-2.341,10.409,3.531,20.664,13.282,24.246c0.858,0.315,1.697,0.664,2.613,0.871
	C1310.061,280.338,1310.968,280.382,1311.878,280.464z"/>
<path style="fill:#E28055;" d="M1324.475,266.034c1.438-6.392-3.721-37.532-3.721-37.532s-17.991,25.935-19.428,32.328
	c-1.438,6.392,2.58,12.739,8.972,14.177C1316.691,276.444,1323.038,272.427,1324.475,266.034z"/>
<path style="fill:#009DC8;" d="M1387.662,574.091l3.553-13.047l-15.793,7.024C1379.571,570.091,1383.649,572.098,1387.662,574.091z"
	/>
<path style="fill:#009DC8;" d="M1397.318,538.638l7.447-27.346l-48.361,21.509l-6.303,23.146c1.347,0.633,2.697,1.266,4.033,1.898
	L1397.318,538.638z"/>
<polygon style="fill:#009DC8;" points="1410.866,488.886 1418.313,461.541 1369.953,483.051 1356.422,532.736 1362.506,510.396 "/>
<path style="fill:#009DC8;" d="M1442.619,372.292c-1.133,4.163-10.91,5.125-21.836,2.149c-10.927-2.976-18.866-8.762-17.732-12.925
	l-13.447,49.377l48.361-21.509L1442.619,372.292z"/>
<polygon style="fill:#009DC8;" points="1423.791,441.429 1431.863,411.79 1383.502,433.299 1384.152,430.91 1376.055,460.645 
	1424.416,439.135 "/>
<path style="fill:#007EA4;" d="M1375.423,568.068l15.793-7.024h0l6.102-22.406l-43.184,19.207
	C1361.403,561.282,1368.497,564.692,1375.423,568.068z"/>
<polygon style="fill:#007EA4;" points="1410.867,488.886 1410.866,488.886 1362.506,510.396 1356.422,532.736 1356.404,532.801 
	1404.765,511.292 "/>
<polygon style="fill:#007EA4;" points="1418.314,461.541 1423.791,441.429 1424.416,439.135 1376.055,460.645 1369.953,483.051 
	1418.313,461.541 "/>
<polygon style="fill:#007EA4;" points="1431.863,411.79 1437.964,389.384 1389.604,410.893 1389.604,410.893 1384.152,430.91 
	1383.502,433.299 "/>
<path style="fill:#007EA4;" d="M1420.783,374.441c10.927,2.976,20.703,2.013,21.836-2.149c1.04-3.818-5.588-8.975-15.117-12.104
	l-2.025,7.436l-5.286-1.439l2.025-7.436c-9.799-2.135-18.125-1.05-19.165,2.767C1401.917,365.678,1409.856,371.465,1420.783,374.441
	z"/>
<path style="fill:#006A8A;" d="M1425.477,367.624l2.025-7.436l5.06-18.582c-0.905-0.123-1.81-0.207-2.715-0.453
	c-0.905-0.247-1.728-0.633-2.571-0.986l-5.061,18.582l-2.025,7.436L1425.477,367.624z"/>
<path style="fill:#E7A95E;" d="M1432.563,341.606c10.294,1.4,20.284-4.915,23.088-15.21c3.05-11.2-3.613-66.723-3.613-66.723
	s-33.896,44.477-36.946,55.677c-2.803,10.294,2.604,20.801,12.186,24.815c0.843,0.353,1.666,0.74,2.571,0.986
	C1430.753,341.399,1431.658,341.483,1432.563,341.606z"/>
<path style="fill:#E7A95E;" d="M1422.899,321.519c1.722-6.322,20.854-31.427,20.854-31.427s3.76,31.34,2.039,37.661
	c-1.722,6.322-8.242,10.051-14.564,8.329C1424.907,334.361,1421.178,327.841,1422.899,321.519z"/>
<path style="fill:#E28055;" d="M1445.792,327.754c1.722-6.322-2.039-37.661-2.039-37.661s-19.133,25.105-20.854,31.427
	c-1.721,6.322,2.008,12.842,8.33,14.564C1437.55,337.805,1444.071,334.076,1445.792,327.754z"/>
<path style="fill:#009DC8;" d="M1102.183,243.154c0,4.314-9.181,7.811-20.505,7.811c-11.324,0-20.505-3.497-20.505-7.811v51.176
	l41.01-33.461V243.154z"/>
<polygon style="fill:#009DC8;" points="1102.183,335.654 1061.173,369.115 1061.173,397.457 1102.183,363.996 "/>
<polygon style="fill:#009DC8;" points="1102.183,387.217 1061.173,420.678 1061.173,449.02 1102.183,415.559 "/>
<path style="fill:#009DC8;" d="M1102.183,460.367v-21.586l-19.754,16.118C1088.984,456.649,1095.567,458.464,1102.183,460.367z"/>
<polygon style="fill:#009DC8;" points="1102.183,284.091 1061.173,317.552 1061.173,345.893 1102.183,312.432 "/>
<path style="fill:#007EA4;" d="M1102.183,438.781v-23.222l-41.01,33.461v0.46c7.037,1.708,14.124,3.515,21.255,5.419
	L1102.183,438.781z"/>
<polygon style="fill:#007EA4;" points="1102.183,363.996 1061.173,397.457 1061.173,420.678 1102.183,387.217 "/>
<polygon style="fill:#007EA4;" points="1102.183,312.432 1061.173,345.893 1061.173,369.115 1102.183,335.654 "/>
<polygon style="fill:#007EA4;" points="1102.183,260.869 1061.173,294.33 1061.173,317.552 1102.183,284.091 "/>
<path style="fill:#007EA4;" d="M1081.678,250.966c11.324,0,20.505-3.497,20.505-7.811c0-3.956-7.75-7.191-17.766-7.706v7.706h-5.479
	v-7.706c-10.015,0.515-17.765,3.749-17.765,7.706C1061.173,247.468,1070.354,250.966,1081.678,250.966z"/>
<path style="fill:#006A8A;" d="M1084.417,243.155V216.19c-0.906,0.119-1.801,0.276-2.739,0.276c-0.939,0-1.834-0.157-2.74-0.277
	v26.966H1084.417z"/>
<path style="fill:#E7A95E;" d="M1084.417,216.19c10.3-1.355,18.279-10.072,18.279-20.742c0-11.608-21.018-63.429-21.018-63.429
	s-21.018,51.821-21.018,63.429c0,10.669,7.979,19.387,18.278,20.742c0.906,0.119,1.801,0.277,2.74,0.277
	C1082.616,216.466,1083.511,216.309,1084.417,216.19z"/>
<path style="fill:#E28055;" d="M1093.541,199.348c0-6.552-11.863-35.802-11.863-35.802s-11.864,29.25-11.864,35.802
	c0,6.552,5.312,11.863,11.864,11.863C1088.23,211.211,1093.541,205.9,1093.541,199.348z"/>
<path style="fill:#009DC8;" d="M974.775,433.873c8.444,0.895,17.062,2.023,25.847,3.388l5.121-6.086l1.35,7.134l-9.384-49.608
	l2.767,14.626L974.775,433.873z"/>
<polygon style="fill:#009DC8;" points="962.083,421.01 996.159,380.51 990.891,352.663 956.816,393.163 955.548,386.463 
	964.329,432.885 964.33,432.885 "/>
<path style="fill:#009DC8;" d="M976.991,279.181l4.047,21.397l-7.34-38.804c0.801,4.239-7.569,9.381-18.696,11.486
	c-11.127,2.105-20.798,0.375-21.6-3.864l11.986,63.363l-2.474-13.079L976.991,279.181z"/>
<polygon style="fill:#009DC8;" points="988.587,340.482 981.307,301.998 947.231,342.498 952.499,370.345 986.575,329.845 "/>
<path style="fill:#007EA4;" d="M1000.622,437.261c2.146,0.333,4.306,0.688,6.471,1.048l-1.35-7.134L1000.622,437.261z"/>
<path style="fill:#007EA4;" d="M964.33,432.885c3.449,0.287,6.93,0.615,10.445,0.987l25.701-30.546l-2.767-14.626l-1.549-8.191
	l-34.076,40.5L964.33,432.885z"/>
<polygon style="fill:#007EA4;" points="990.891,352.663 988.587,340.482 986.575,329.845 952.499,370.345 955.548,386.463 
	956.816,393.163 "/>
<polygon style="fill:#007EA4;" points="981.039,300.578 976.991,279.181 942.916,319.681 945.39,332.76 947.231,342.498 
	981.307,301.998 "/>
<path style="fill:#007EA4;" d="M955.003,273.261c11.127-2.105,19.497-7.247,18.696-11.486c-0.736-3.888-8.951-5.626-18.889-4.27
	l1.432,7.572l-5.383,1.018l-1.432-7.572c-9.746,2.368-16.758,6.986-16.023,10.874C934.205,273.636,943.876,275.366,955.003,273.261z
	"/>
<path style="fill:#006A8A;" d="M956.242,265.077l-1.432-7.572l-3.58-18.923c-0.867,0.285-1.718,0.606-2.639,0.781
	c-0.922,0.174-1.832,0.187-2.744,0.238l3.58,18.923l1.432,7.572L956.242,265.077z"/>
<path style="fill:#E7A95E;" d="M951.23,238.582c9.869-3.246,16.089-13.294,14.105-23.778c-2.158-11.406-32.441-58.417-32.441-58.417
	s-11.02,54.825-8.863,66.23c1.983,10.483,11.443,17.566,21.815,16.983c0.912-0.051,1.822-0.064,2.744-0.238
	C949.512,239.187,950.363,238.867,951.23,238.582z"/>
<path style="fill:#E28055;" d="M957.066,220.337c-1.218-6.438-18.311-32.973-18.311-32.973s-6.22,30.945-5.002,37.384
	c1.218,6.438,7.424,10.669,13.861,9.451C954.052,232.982,958.283,226.775,957.066,220.337z"/>
<path style="fill:#EBD2B7;" d="M1077.022,796.049c-23.789-5.86-49.584-12.419-74.282-18.797c-1.417,7.334-4.931,14.044-9.36,19.963
	c1.831,1.244,3.466,3.301,4.72,6.084c1.952-3.398,4.505-5.526,7.334-5.526c3.31,0,6.245,2.889,8.264,7.37
	c1.951-3.398,4.504-5.526,7.334-5.526c3.31,0,6.245,2.889,8.264,7.37c1.951-3.399,4.505-5.526,7.334-5.526
	c3.309,0,6.244,2.889,8.264,7.37c1.951-3.398,4.504-5.526,7.334-5.526c3.31,0,6.245,2.889,8.264,7.37
	c1.951-3.398,4.504-5.525,7.333-5.525c2.013,0,3.855,1.164,5.469,3.009C1072.679,803.822,1073.651,799.666,1077.022,796.049z"/>
<path style="fill:#EBD2B7;" d="M1461.276,797.395c-4.885-0.427-8.855-3.865-10.805-9.216c-1.913-2.982-2.068-8.707-0.081-14.699
	c2.614-7.882,7.925-13.213,11.863-11.908c3.938,1.306,5.011,8.755,2.397,16.637c-1.899,5.726-5.22,10.067-8.405,11.534
	c1.157,1.58,2.874,3.009,5.422,3.233c4.379,0.386,16.595-2.672,35.33-39.299c4.119-8.053,6.159-14.938,6.097-20.401
	c0.002-0.024,0.002-0.049,0.003-0.074c-0.048-3.279-0.859-6.043-2.44-8.234c-4.281-5.936-14.36-8.015-28.373-5.861
	c-33.55,5.158-77.528,31.722-92.855,63.275c6.686,3.499,12.34,8.333,16.808,14.034c-0.001-0.034,0.002-0.068,0-0.102
	c1.273,1.623,2.438,3.321,3.509,5.076c0.118,0.193,0.218,0.396,0.333,0.591c0.879,1.486,1.68,3.011,2.408,4.576
	c0.2,0.429,0.386,0.862,0.575,1.296c0.614,1.417,1.162,2.859,1.65,4.328c0.146,0.439,0.304,0.871,0.438,1.314
	c0.559,1.846,1.042,3.715,1.395,5.62c0.005,0.027,0.014,0.053,0.019,0.081c0.358,1.951,0.586,3.93,0.719,5.926
	c0.033,0.498,0.027,0.999,0.046,1.5c0.055,1.47,0.057,2.944-0.014,4.427c-0.031,0.653-0.079,1.303-0.135,1.957
	c-0.121,1.413-0.311,2.826-0.551,4.242c-0.102,0.608-0.185,1.213-0.31,1.82c-0.41,1.988-0.905,3.974-1.56,5.948
	c-1.134,3.422-2.589,6.648-4.32,9.656c-0.879,1.527-1.832,2.996-2.847,4.408c9.13,0.151,14.997,4.303,13.809,16.904
	c-1.067,11.319-7.226,20.302-15.05,27.292c2.126,1.145,4.004,3.442,5.414,6.593c1.637-1.867,3.518-3.011,5.554-3.011
	c3.325,0,6.27,2.916,8.291,7.431c1.637-1.867,3.519-3.011,5.555-3.011c3.325,0,6.271,2.916,8.291,7.431
	c1.636-1.867,3.519-3.011,5.555-3.011c2.392,0,4.573,1.55,6.369,4.078c31.646-44.172,53.289-106.948,59.923-164.829
	c-0.128,0.256-0.222,0.494-0.354,0.752C1482.666,791.438,1469.284,798.101,1461.276,797.395z"/>
<path style="fill:#EBD2B7;" d="M769.795,702.169c1.176,1.094,2.296,2.239,3.365,3.434c0.267,0.297,0.548,0.577,0.807,0.879
	c1.274,1.491,2.477,3.04,3.578,4.665c0.168,0.248,0.308,0.517,0.472,0.768c0.891,1.366,1.721,2.772,2.483,4.22
	c0.299,0.568,0.569,1.151,0.848,1.732c0.597,1.243,1.144,2.508,1.642,3.801c0.223,0.579,0.45,1.153,0.652,1.743
	c0.576,1.67,1.073,3.371,1.479,5.108c0.047,0.205,0.115,0.4,0.161,0.605c0.445,2.018,0.758,4.078,0.96,6.168
	c0.013,0.125,0.046,0.243,0.058,0.37c0.053,0.579,0.036,1.147,0.07,1.723c0.057,1.001,0.123,1.998,0.121,3.012
	c0.002,1.013-0.065,2.01-0.121,3.012c-0.033,0.576-0.016,1.144-0.07,1.723c-0.013,0.146-0.047,0.285-0.061,0.431
	c-0.114,1.155-0.298,2.289-0.487,3.423c-0.098,0.592-0.171,1.194-0.289,1.779c-0.044,0.216-0.068,0.438-0.114,0.653
	c8.43-3.51,15.468-2.048,19.413,9.979c2.378,7.248,2.237,14.45,0.567,21.285c1.4,1.068,2.67,2.639,3.724,4.653
	c2.02-4.845,5.072-8.007,8.536-8.007c3.015,0,5.742,2.358,7.732,6.163c2.02-4.846,5.072-8.008,8.536-8.008
	c3.31,0,6.245,2.89,8.264,7.37c1.952-3.398,4.505-5.526,7.334-5.526c3.31,0,6.245,2.889,8.265,7.37
	c1.664-2.899,3.782-4.781,6.12-5.299c0.71-4.535,3.795-9.053,10.436-13.281c9.577-6.098,16.264-5.924,22.12-3.42
	c-0.074-0.092-0.146-0.186-0.219-0.279c-0.148-0.189-0.299-0.375-0.445-0.567c-0.688-0.905-1.344-1.83-1.972-2.777
	c-0.112-0.169-0.218-0.342-0.328-0.513c-1.348-2.089-2.55-4.277-3.595-6.548c-1.042-2.268-1.924-4.613-2.635-7.021
	c-0.022-0.076-0.053-0.148-0.075-0.224c0,0-132.437-130.601-36.756-233.884c95.68-103.283,399.628,53.117,399.628,94.43
	c0,26.516-19.679,105.881-42.992,158.651c-0.001,0.231-0.043,0.465-0.047,0.697c-0.031,1.77-0.148,3.542-0.362,5.316
	c-0.025,0.206-0.028,0.411-0.056,0.617c-0.273,2.049-0.686,4.091-1.212,6.125c-0.031,0.122-0.04,0.244-0.073,0.367
	c-0.149,0.562-0.359,1.09-0.526,1.643c-0.29,0.96-0.57,1.919-0.918,2.871c-0.347,0.954-0.752,1.871-1.149,2.794
	c-0.229,0.528-0.407,1.065-0.654,1.589c-0.062,0.132-0.14,0.25-0.204,0.381c-0.506,1.052-1.071,2.06-1.641,3.066
	c-0.292,0.517-0.563,1.052-0.871,1.555c-0.116,0.189-0.215,0.39-0.333,0.577c9.122-0.408,15.233,3.379,14.816,16.029
	c-0.445,13.515-8.27,24.177-17.713,32.193c0.295-0.046,0.578-0.171,0.878-0.171c3.552,0,6.677,3.314,8.692,8.373
	c1.989-3.803,4.716-6.16,7.73-6.16c4.549,0,8.45,5.349,10.132,12.976c1.674-1.989,3.622-3.195,5.729-3.195
	c4.549,0,8.45,5.349,10.132,12.976c1.674-1.989,3.622-3.195,5.729-3.195c4.549,0,8.45,5.349,10.132,12.976
	c1.674-1.989,3.623-3.195,5.729-3.195c3.121,0,5.926,2.541,7.931,6.586c1.253-2.529,2.842-4.369,4.603-5.469
	c-4.428-10.222-3.527-20.404,12.053-25.719c10.742-3.665,17.198-1.921,22.297,1.891c-0.048-0.105-0.092-0.21-0.139-0.315
	c-0.125-0.275-0.247-0.55-0.367-0.828c-1.99-4.588-3.322-9.456-3.934-14.478c-0.004-0.036-0.009-0.072-0.014-0.108
	c-0.153-1.284-0.26-2.573-0.317-3.873c0-0.001,0-0.002,0-0.004v0c-0.272-6.177,0.498-12.5,2.56-18.718
	c9.079-27.375,38.63-42.208,66.006-33.129c1.308,0.434,2.56,0.956,3.81,1.481c16.031-32.848,61.505-60.439,96.17-65.767
	c15.04-2.308,26.229,0.112,31.831,6.742c0.453-49.38-11.967-91.016-41.017-107.721c-20.136-11.579-45.625-25.187-74.76-39.653
	c-4.014-1.993-8.091-4-12.24-6.023c-6.926-3.376-14.02-6.786-21.29-10.223c-1.336-0.632-2.686-1.265-4.033-1.898
	c-23.429-11.012-48.469-22.23-74.489-33.204c-6.802-2.869-13.661-5.723-20.584-8.549c-5.929-2.421-11.907-4.816-17.91-7.195
	c-21.182-8.395-42.763-16.502-64.437-24.081c-2.287-0.799-4.574-1.58-6.862-2.368c-8.04-2.768-16.084-5.459-24.121-8.065
	c-2.708-0.879-5.414-1.747-8.119-2.606c-10.503-3.331-20.981-6.517-31.396-9.513c-6.616-1.903-13.199-3.718-19.754-5.468
	c-7.131-1.904-14.218-3.712-21.255-5.419c-18.466-4.481-36.564-8.256-54.081-11.17c-2.164-0.36-4.325-0.715-6.471-1.048
	c-8.785-1.365-17.404-2.493-25.847-3.388c-3.515-0.372-6.996-0.701-10.445-0.987h-0.001c-56.919-4.723-104.577,2.484-133.738,28.147
	c-65.295,57.463-71.241,158.253-64.384,238.082c0.889,0.689,1.746,1.411,2.588,2.154
	C769.133,701.566,769.466,701.863,769.795,702.169z"/>
<path style="fill:#F0DFCB;" d="M886.828,718.648c6.635-24.578,29.75-40.271,54.23-38.453c5.053-34.859-17.173-81.816-42.513-104.789
	c-10.505-9.523-20.059-13.345-26.903-10.752c-6.746,2.552-11.163,11.531-12.773,25.97c-4.562,40.887,3.945,50.173,7.811,52.265
	c2.249,1.217,4.469,0.972,6.305,0.291c-1.849-2.979-2.226-8.432-0.654-14.255c2.164-8.018,7.166-13.64,11.171-12.559
	c4.005,1.081,5.497,8.457,3.333,16.474c-1.646,6.095-4.93,10.785-8.17,12.219c-4.578,3.388-9.785,4.069-14.096,1.733
	c-7.07-3.825-14.562-16.762-10.11-56.657c1.834-16.436,7.085-26.404,15.612-29.628c8.483-3.212,19.651,0.92,31.455,11.615
	c26.145,23.701,49.021,72.25,43.916,108.569c1.804,0.289,3.61,0.666,5.414,1.153c7.04,1.9,13.309,5.195,18.683,9.452
	c-0.006-0.023-0.01-0.047-0.017-0.069c1.59,1.253,3.093,2.607,4.524,4.03c0.201,0.2,0.388,0.411,0.585,0.614
	c1.176,1.21,2.287,2.47,3.336,3.783c0.279,0.348,0.555,0.697,0.825,1.052c0.973,1.283,1.881,2.606,2.73,3.97
	c0.21,0.336,0.437,0.658,0.639,0.998c1,1.689,1.919,3.423,2.724,5.215c0.12,0.268,0.209,0.549,0.326,0.82
	c0.646,1.505,1.224,3.04,1.728,4.604c0.195,0.607,0.36,1.223,0.533,1.839c0.375,1.331,0.698,2.676,0.967,4.04
	c0.12,0.607,0.243,1.21,0.341,1.823c0.281,1.748,0.478,3.513,0.579,5.297c0.011,0.206,0.045,0.406,0.054,0.613
	c0.092,2.066,0.044,4.151-0.115,6.245c-0.009,0.125,0.003,0.246-0.007,0.372c-0.047,0.578-0.161,1.132-0.227,1.704
	c-0.117,0.997-0.223,1.993-0.399,2.992c-0.173,1-0.41,1.973-0.639,2.951c-0.132,0.56-0.212,1.121-0.364,1.682
	c-0.038,0.141-0.095,0.272-0.134,0.413c-0.312,1.121-0.689,2.21-1.071,3.297c-0.198,0.564-0.372,1.14-0.587,1.693
	c-0.081,0.206-0.143,0.422-0.226,0.626c8.909-2.007,15.59,0.644,17.407,13.169c0.613,4.22,0.442,8.287-0.31,12.183
	c24.697,6.378,50.492,12.938,74.282,18.797c2.131-2.287,5.177-4.367,9.452-6.124c10.502-4.316,17.054-2.968,22.377,0.529
	c-0.056-0.106-0.113-0.211-0.168-0.317c-0.111-0.211-0.226-0.418-0.335-0.63c-0.518-1.013-1.002-2.039-1.453-3.083
	c-0.08-0.186-0.154-0.375-0.232-0.562c-0.96-2.294-1.758-4.658-2.386-7.078c-0.626-2.415-1.081-4.877-1.358-7.37
	c-0.008-0.08-0.025-0.159-0.034-0.24c0.004,0.003,0.008,0.006,0.01,0.01c-0.979-9.2,0.413-18.767,4.648-27.747
	c10.859-23.025,36.375-34.404,60.154-28.304c11.112-33.424-2.499-83.562-23.398-110.638c-8.664-11.224-17.396-16.668-24.59-15.321
	c-7.089,1.325-13.018,9.387-17.146,23.315c-11.69,39.445-4.951,50.084-1.513,52.823c1.999,1.595,4.228,1.744,6.156,1.397
	c-1.295-3.259-0.707-8.692,1.866-14.148c3.542-7.511,9.455-12.165,13.208-10.396c3.752,1.77,3.923,9.293,0.38,16.804
	c-2.693,5.71-6.752,9.749-10.194,10.59c-5.103,2.529-10.348,2.282-14.181-0.776c-6.286-5.01-11.383-19.064,0.023-57.553
	c4.699-15.856,11.623-24.743,20.585-26.416c8.916-1.668,19.182,4.366,28.918,16.972c21.564,27.934,35.535,79.753,24.114,114.605
	c1.725,0.602,3.437,1.291,5.126,2.088c6.595,3.11,12.187,7.457,16.727,12.594c-0.003-0.023-0.002-0.048-0.005-0.071
	c1.344,1.514,2.586,3.111,3.744,4.764c0.162,0.232,0.309,0.472,0.467,0.706c0.946,1.4,1.819,2.838,2.621,4.317
	c0.212,0.389,0.42,0.777,0.622,1.172c0.733,1.437,1.396,2.904,1.993,4.401c0.146,0.364,0.312,0.718,0.449,1.085
	c0.687,1.84,1.288,3.711,1.765,5.618c0.071,0.281,0.108,0.57,0.174,0.852c0.373,1.6,0.671,3.216,0.892,4.848
	c0.086,0.631,0.139,1.266,0.201,1.902c0.135,1.378,0.215,2.76,0.24,4.151c0.007,0.386,0.065,0.763,0.063,1.151
	c23.312-52.77,42.992-132.135,42.992-158.651c0-41.313-303.948-197.713-399.628-94.43c-95.68,103.284,36.756,233.884,36.756,233.884
	l0.01,0.003C884.553,737.893,884.24,728.232,886.828,718.648z"/>
<path style="fill:#99213D;" d="M1663.952,782.247c14.014-2.154,24.093-0.076,28.374,5.86c4.22,5.848,2.955,15.775-3.66,28.708
	c-18.734,36.628-30.95,39.686-35.33,39.3c-2.547-0.224-4.265-1.653-5.421-3.233c3.185-1.467,6.506-5.808,8.405-11.533
	c2.614-7.883,1.541-15.331-2.397-16.637c-3.938-1.306-9.249,4.025-11.863,11.907c-1.987,5.992-1.833,11.716,0.081,14.699
	c1.951,5.35,5.921,8.789,10.805,9.216c8.008,0.706,21.39-5.957,39.669-41.697c7.53-14.723,8.644-25.935,3.308-33.326
	c-5.307-7.357-16.902-10.065-32.646-7.65c-34.665,5.328-80.139,32.919-96.17,65.767c1.37,0.575,2.694,1.214,3.99,1.893
	C1586.424,813.969,1630.402,787.406,1663.952,782.247z"/>
<path style="fill:#B82C4C;" d="M1519.339,911.301c27.375,9.079,56.927-5.753,66.005-33.129c2.051-6.184,2.82-12.471,2.561-18.616
	c-4.468-5.7-10.122-10.534-16.808-14.033c-1.297-0.679-2.62-1.318-3.99-1.893c-1.249-0.525-2.501-1.047-3.809-1.481
	c-27.375-9.079-56.927,5.754-66.006,33.13c-2.071,6.245-2.794,12.587-2.498,18.787
	C1500.905,901.826,1509.261,907.959,1519.339,911.301z"/>
<path style="fill:#99213D;" d="M1523.707,934.14c13.876,4.602,46.704-12.232,65.552-11.921c3.014-4.193,5.456-8.904,7.167-14.064
	c0.654-1.973,1.15-3.958,1.56-5.945c0.125-0.61,0.208-1.218,0.312-1.829c0.239-1.413,0.43-2.825,0.55-4.236
	c0.056-0.654,0.104-1.305,0.135-1.958c0.07-1.482,0.071-2.957,0.014-4.425c-0.019-0.501-0.012-1.003-0.046-1.503
	c-0.134-1.995-0.361-3.975-0.72-5.925c-0.005-0.028-0.014-0.056-0.019-0.084c-0.354-1.904-0.835-3.775-1.395-5.62
	c-0.134-0.44-0.291-0.87-0.436-1.307c-0.488-1.468-1.036-2.914-1.651-4.331c-0.189-0.435-0.374-0.867-0.574-1.296
	c-0.73-1.565-1.532-3.095-2.412-4.582c-0.114-0.193-0.213-0.393-0.328-0.584c-1.071-1.755-2.237-3.455-3.51-5.077
	c0.001,0.034-0.001,0.068,0,0.102c0.259,6.146-0.51,12.432-2.561,18.616c-9.079,27.376-38.63,42.208-66.005,33.129
	c-10.078-3.342-18.434-9.474-24.545-17.235c-0.019-0.025-0.044-0.045-0.063-0.069c0.057,1.302,0.165,2.597,0.318,3.883
	c0.003,0.03,0.008,0.061,0.012,0.091c0.608,5.022,1.951,9.897,3.934,14.487c0.12,0.278,0.243,0.554,0.369,0.83
	c0.05,0.111,0.109,0.219,0.16,0.33C1507.341,919.476,1511.941,930.237,1523.707,934.14z"/>
<path style="fill:#E6386B;" d="M1470.989,931.968c0.275-0.314,0.567-0.574,0.855-0.845c0.235-2.698,1.042-5.49,2.799-8.337
	c10.804-17.507,18.854,8.46,31.021,10.288c3.298,0.496,4.282,3.469,3.739,7.246c2.58,2.698,4.537,7.349,5.37,12.929
	c1.619-1.811,3.471-2.927,5.474-2.927c5.02,0,9.208,6.55,10.537,15.453c1.618-1.812,3.471-2.927,5.474-2.927
	c5.02,0,9.208,6.549,10.537,15.453c1.619-1.812,3.471-2.927,5.475-2.927c3.293,0,6.204,2.877,8.219,7.324
	c0.468-0.187,0.946-0.381,1.43-0.581c1.696-2.112,3.677-3.423,5.843-3.423c0.429,0,0.84,0.12,1.255,0.213
	c14.745-7.278,32.182-19.968,34.052-39.784c1.188-12.601-4.679-16.754-13.809-16.904l0,0c-18.849-0.311-51.677,16.522-65.552,11.921
	c-11.765-3.902-16.366-14.663-24.183-20.522c-0.008-0.005-0.015-0.012-0.021-0.017c-5.098-3.812-11.555-5.556-22.297-1.891
	c-8.872,3.027-12.945,7.64-14.024,12.933C1466.303,924.916,1469.07,927.678,1470.989,931.968z"/>
<path style="fill:#EA6782;" d="M1505.663,933.073c-12.167-1.828-20.217-27.794-31.021-10.288c-1.758,2.847-2.564,5.639-2.799,8.337
	c1.428-1.341,3.006-2.166,4.7-2.166c3.325,0,6.27,2.916,8.29,7.431c1.637-1.867,3.519-3.011,5.555-3.011
	c3.325,0,6.27,2.916,8.291,7.432c1.636-1.867,3.519-3.012,5.555-3.012c1.874,0,3.631,0.916,5.167,2.523
	C1509.946,936.543,1508.962,933.569,1505.663,933.073z"/>
<path style="fill:#CB4D5F;" d="M1571.804,875.349c0,0,6.567-30.056-26.74-30.103c-33.307-0.047-35.837,33.99-35.837,33.99
	C1517.366,917.248,1571.804,875.349,1571.804,875.349z"/>
<path style="fill:#99213D;" d="M1471.608,714.723c-34.665,5.328-80.139,32.919-96.17,65.767c1.37,0.575,2.693,1.214,3.99,1.892
	c15.328-31.553,59.305-58.117,92.855-63.275c14.014-2.154,24.093-0.076,28.373,5.861c1.581,2.191,2.392,4.955,2.44,8.234
	c-0.001,0.025-0.001,0.05-0.003,0.074c0.062,5.463-1.978,12.347-6.097,20.401c-18.734,36.627-30.95,39.686-35.33,39.299
	c-2.547-0.224-4.265-1.653-5.422-3.233c3.185-1.467,6.506-5.808,8.405-11.534c2.614-7.882,1.541-15.331-2.397-16.637
	c-3.938-1.306-9.249,4.026-11.863,11.908c-1.987,5.992-1.833,11.716,0.081,14.699c1.951,5.351,5.92,8.789,10.805,9.216
	c8.007,0.706,21.39-5.957,39.669-41.697c0.132-0.258,0.225-0.496,0.354-0.752c7.177-14.344,8.197-25.313,2.954-32.574
	c-0.237-0.328-0.553-0.598-0.815-0.907C1497.836,714.835,1486.648,712.415,1471.608,714.723z"/>
<path style="fill:#B82C4C;" d="M1327.669,848.161c27.375,9.079,56.927-5.754,66.006-33.129c2.051-6.184,2.82-12.471,2.561-18.616
	c-4.468-5.7-10.122-10.535-16.808-14.034c-1.297-0.679-2.62-1.317-3.99-1.892c-1.249-0.525-2.502-1.047-3.81-1.481
	c-27.375-9.079-56.927,5.754-66.006,33.129c-2.062,6.218-2.832,12.541-2.56,18.718
	C1309.177,838.652,1317.56,844.808,1327.669,848.161z"/>
<path style="fill:#99213D;" d="M1332.037,871c13.876,4.602,46.704-12.232,65.552-11.921c1.015-1.412,1.968-2.881,2.847-4.408
	c1.731-3.008,3.186-6.234,4.32-9.656c0.655-1.974,1.15-3.959,1.56-5.948c0.125-0.607,0.208-1.213,0.31-1.82
	c0.24-1.416,0.43-2.829,0.551-4.242c0.056-0.654,0.104-1.305,0.135-1.957c0.071-1.483,0.069-2.957,0.014-4.427
	c-0.019-0.5-0.013-1.002-0.046-1.5c-0.133-1.996-0.361-3.975-0.719-5.926c-0.005-0.027-0.014-0.053-0.019-0.081
	c-0.353-1.905-0.836-3.775-1.395-5.62c-0.134-0.443-0.293-0.875-0.438-1.314c-0.487-1.468-1.035-2.91-1.65-4.328
	c-0.189-0.434-0.375-0.867-0.575-1.296c-0.729-1.564-1.529-3.09-2.408-4.576c-0.115-0.195-0.215-0.398-0.333-0.591
	c-1.07-1.755-2.236-3.453-3.509-5.076c0.002,0.034-0.001,0.068,0,0.102c0.259,6.145-0.51,12.432-2.561,18.616
	c-9.079,27.375-38.631,42.208-66.006,33.129c-10.109-3.353-18.492-9.509-24.607-17.305v0c0,0.002,0,0.003,0,0.004
	c0.057,1.3,0.164,2.589,0.317,3.873c0.005,0.036,0.01,0.072,0.014,0.108c0.609,5.019,1.952,9.891,3.934,14.478
	c0.12,0.277,0.242,0.552,0.367,0.828c0.051,0.112,0.11,0.22,0.161,0.332C1315.671,856.336,1320.272,867.098,1332.037,871z"/>
<path style="fill:#E6386B;" d="M1411.398,875.983c1.189-12.601-4.678-16.754-13.809-16.904l0,0
	c-18.849-0.311-51.676,16.523-65.552,11.921c-11.765-3.902-16.366-14.663-24.183-20.522c-0.008-0.005-0.015-0.012-0.022-0.017
	c-5.099-3.813-11.555-5.556-22.297-1.891c-15.58,5.315-16.481,15.497-12.053,25.719c1.055-0.659,2.157-1.116,3.327-1.116
	c1.417,0,2.753,0.583,3.995,1.533c-1.295-4.605-1.108-9.751,2.168-15.059c10.804-17.507,18.854,8.46,31.021,10.288
	c5.219,0.784,4.669,7.754,1.375,14.336c0.331,0.877,0.638,1.791,0.899,2.761c2.007-4.104,4.829-6.694,7.977-6.694
	c3.325,0,6.27,2.915,8.29,7.431c1.637-1.867,3.519-3.011,5.555-3.011c3.325,0,6.27,2.916,8.291,7.431
	c1.636-1.866,3.519-3.011,5.554-3.011c3.325,0,6.27,2.916,8.291,7.432c1.637-1.867,3.519-3.012,5.555-3.012
	c3.324,0,6.27,2.916,8.29,7.432c1.636-1.866,3.519-3.011,5.555-3.011c3.325,0,6.27,2.915,8.291,7.431
	c1.637-1.867,3.519-3.011,5.555-3.011c1.004,0,1.957,0.342,2.876,0.838C1404.173,896.284,1410.331,887.302,1411.398,875.983z"/>
<path style="fill:#EA6782;" d="M1313.994,869.933c-12.167-1.828-20.217-27.795-31.021-10.288
	c-3.276,5.309-3.463,10.454-2.168,15.059c1.493,1.143,2.841,2.844,3.936,5.052c2.004-4.045,4.809-6.586,7.931-6.586
	c2.981,0,5.677,2.317,7.66,6.048c1.768-2.345,3.904-3.725,6.208-3.725c3.643,0,6.833,3.48,8.83,8.774
	C1318.663,877.687,1319.213,870.718,1313.994,869.933z"/>
<path style="fill:#CB4D5F;" d="M1380.135,812.209c0,0,6.567-30.056-26.74-30.103c-33.307-0.047-35.837,33.99-35.837,33.99
	C1325.696,854.109,1380.135,812.209,1380.135,812.209z"/>
<path style="fill:#99213D;" d="M671.56,588.789c-13.468-8.505-25.179-10.654-32.983-6.031c-7.845,4.643-11.303,15.366-10.283,31.872
	c2.477,40.067,12.083,51.522,19.705,54.074c4.649,1.56,9.661-0.006,13.588-4.131c2.945-1.97,5.374-7.155,5.946-13.442
	c0.753-8.27-1.985-15.279-6.117-15.656c-4.132-0.376-8.091,6.023-8.845,14.293c-0.547,6.007,0.764,11.313,3.097,13.931
	c-1.692,0.986-3.837,1.61-6.261,0.797c-4.169-1.395-14.146-9.08-16.685-50.142c-0.896-14.5,1.91-24.105,8.115-27.779
	c6.296-3.732,16.366-1.61,28.352,5.964c28.914,18.272,58.886,60.706,59.905,95.915c1.454-0.144,2.92-0.247,4.403-0.268
	C732.279,651.531,701.392,607.64,671.56,588.789z"/>
<path style="fill:#B82C4C;" d="M716.889,769.347c28.723-2.615,49.887-28.019,47.272-56.742c-0.592-6.498-2.403-12.579-5.103-18.116
	c-6.026-3.269-12.769-5.437-20.031-6.098c-1.86-0.17-3.705-0.23-5.531-0.205c-1.483,0.021-2.949,0.123-4.403,0.268
	c-24.429,2.419-44.5,21.855-46.808,47.208c-0.901,9.888,1.071,19.353,5.144,27.66C696.149,768.02,706.288,770.312,716.889,769.347z"
	/>
<path style="fill:#99213D;" d="M730.019,788.538c14.559-1.326,37.926-29.873,55.329-37.119c0.046-0.215,0.07-0.437,0.114-0.653
	c0.118-0.585,0.191-1.187,0.289-1.779c0.189-1.134,0.373-2.269,0.487-3.423c0.07-0.712,0.09-1.435,0.131-2.154
	c0.057-1.001,0.123-1.998,0.121-3.012c0.002-1.014-0.065-2.011-0.121-3.012c-0.033-0.576-0.016-1.144-0.07-1.723
	c-0.011-0.126-0.045-0.244-0.058-0.37c-0.203-2.09-0.515-4.151-0.96-6.168c-0.045-0.206-0.114-0.401-0.161-0.605
	c-0.406-1.737-0.903-3.438-1.479-5.108c-0.203-0.59-0.43-1.164-0.652-1.743c-0.498-1.293-1.045-2.558-1.642-3.801
	c-0.279-0.581-0.549-1.163-0.848-1.732c-0.762-1.448-1.591-2.854-2.483-4.22c-0.164-0.251-0.304-0.52-0.472-0.768
	c-1.1-1.625-2.303-3.174-3.578-4.665c-0.26-0.303-0.54-0.583-0.807-0.879c-1.069-1.195-2.189-2.34-3.365-3.434
	c-0.329-0.306-0.662-0.603-0.999-0.9c-1.261-1.11-2.57-2.163-3.932-3.148c-0.231-0.167-0.452-0.343-0.686-0.507
	c-1.653-1.156-3.367-2.231-5.148-3.191c0.011,0.021,0.018,0.044,0.029,0.066c2.7,5.537,4.511,11.618,5.103,18.116
	c2.615,28.723-18.549,54.127-47.272,56.742c-10.601,0.965-20.74-1.327-29.459-6.025c-0.004-0.003-0.009-0.004-0.013-0.007
	c0.035,0.073,0.078,0.14,0.115,0.213c1.116,2.256,2.391,4.413,3.805,6.463c1.419,2.058,2.98,4.007,4.668,5.833
	c0.136,0.147,0.268,0.296,0.405,0.441c0.782,0.827,1.591,1.627,2.424,2.401c0.174,0.162,0.353,0.318,0.53,0.477
	c0.094,0.085,0.194,0.162,0.288,0.245C709.157,781.635,717.675,789.662,730.019,788.538z"/>
<path style="fill:#E6386B;" d="M684.417,812.245c-2.954-3.683-4.782-8.421-3.912-14.511c2.91-20.366,20.663,0.222,32.548-2.964
	c2.349-0.63,4.091,0.449,5.261,2.498c1.95,0.936,3.709,2.82,5.095,5.469c1.672-7.67,5.589-13.052,10.153-13.052
	c2.974,0,5.663,2.309,7.645,6.024c1.926-6.216,5.403-10.416,9.416-10.416c3.289,0,6.207,2.85,8.227,7.28
	c1.852-6.751,5.473-11.4,9.691-11.4c3.212,0,6.077,2.711,8.091,6.963c2.014-4.252,4.879-6.963,8.092-6.963
	c3.33,0,6.279,2.925,8.299,7.453c2.021-4.528,4.97-7.453,8.3-7.453c1.419,0,2.764,0.56,4.008,1.51
	c1.67-6.835,1.811-14.037-0.567-21.285c-3.945-12.026-10.983-13.489-19.413-9.979c-17.403,7.246-40.771,35.794-55.329,37.119
	c-12.344,1.123-20.862-6.904-30.369-9.151c-0.007-0.002-0.014-0.004-0.021-0.005c-6.198-1.46-12.816-0.48-21.201,7.173
	c-11.045,10.081-9.365,18.998-2.862,26.247c1.429-1.341,3.021-2.13,4.719-2.13C681.748,810.672,683.14,811.239,684.417,812.245z"/>
<path style="fill:#EA6782;" d="M713.053,794.77c-11.884,3.185-29.638-17.402-32.548,2.964c-0.87,6.09,0.958,10.828,3.912,14.511
	c0.844,0.665,1.634,1.531,2.359,2.561c0.95,0.876,1.964,1.653,3.001,2.379c1.455-8.491,5.544-14.645,10.412-14.645
	c2.328,0,4.48,1.417,6.259,3.807c1.965-5.866,5.358-9.765,9.234-9.765c0.912,0,1.784,0.28,2.632,0.687
	C717.144,795.219,715.401,794.14,713.053,794.77z"/>
<path style="fill:#CB4D5F;" d="M750.622,715.427c0,0-5.989-30.176-36.541-16.912c-30.551,13.265-19.272,45.478-19.272,45.478
	C717.458,775.587,750.622,715.427,750.622,715.427z"/>
<path style="fill:#99213D;" d="M901.526,572.12c-11.804-10.695-22.971-14.827-31.455-11.615
	c-8.527,3.224-13.778,13.192-15.612,29.628c-4.451,39.896,3.04,52.833,10.11,56.657c4.311,2.336,9.519,1.656,14.096-1.733
	c3.24-1.434,6.524-6.124,8.17-12.219c2.164-8.017,0.672-15.393-3.333-16.474c-4.005-1.081-9.007,4.542-11.171,12.559
	c-1.572,5.823-1.194,11.276,0.654,14.255c-1.836,0.681-4.057,0.926-6.305-0.291c-3.867-2.092-12.373-11.378-7.811-52.265
	c1.611-14.438,6.028-23.417,12.773-25.97c6.844-2.593,16.398,1.229,26.903,10.752c25.34,22.973,47.566,69.93,42.513,104.789
	c1.457,0.108,2.919,0.259,4.384,0.494C950.547,644.37,927.67,595.821,901.526,572.12z"/>
<path style="fill:#B82C4C;" d="M945.442,680.689c-1.464-0.234-2.926-0.386-4.384-0.494c-24.481-1.818-47.596,13.875-54.23,38.453
	c-2.587,9.583-2.275,19.244,0.308,28.126c0,0.003,0.002,0.004,0.002,0.006c7.779,6.128,17.374,10.13,27.984,11.003
	c28.744,2.365,53.963-19.02,56.327-47.765c0.535-6.504-0.203-12.805-1.91-18.724c-5.373-4.257-11.643-7.552-18.683-9.452
	C949.052,681.355,947.246,680.977,945.442,680.689z"/>
<path style="fill:#99213D;" d="M924.754,778.946c14.57,1.199,42.5-22.904,60.89-27.048c0.083-0.205,0.145-0.42,0.226-0.626
	c0.215-0.553,0.389-1.129,0.587-1.693c0.382-1.087,0.76-2.176,1.071-3.297c0.191-0.688,0.335-1.395,0.498-2.095
	c0.229-0.978,0.466-1.951,0.639-2.951c0.176-0.999,0.282-1.995,0.399-2.992c0.066-0.571,0.18-1.126,0.227-1.704
	c0.01-0.125-0.002-0.246,0.007-0.372c0.16-2.095,0.207-4.18,0.115-6.245c-0.009-0.207-0.042-0.407-0.054-0.613
	c-0.101-1.784-0.299-3.549-0.579-5.297c-0.098-0.614-0.222-1.216-0.341-1.823c-0.269-1.364-0.592-2.708-0.967-4.04
	c-0.173-0.616-0.338-1.231-0.533-1.839c-0.504-1.564-1.082-3.098-1.728-4.604c-0.117-0.271-0.206-0.552-0.326-0.82
	c-0.805-1.792-1.724-3.526-2.724-5.215c-0.203-0.341-0.43-0.662-0.639-0.998c-0.85-1.364-1.758-2.688-2.73-3.97
	c-0.27-0.355-0.546-0.703-0.825-1.052c-1.049-1.313-2.161-2.573-3.336-3.783c-0.197-0.203-0.384-0.415-0.585-0.614
	c-1.431-1.424-2.934-2.777-4.524-4.03c0.007,0.022,0.01,0.046,0.017,0.069c1.707,5.919,2.445,12.22,1.91,18.724
	c-2.364,28.745-27.583,50.13-56.327,47.765c-10.61-0.872-20.205-4.875-27.984-11.003c-0.004-0.003-0.008-0.005-0.012-0.008
	c0.022,0.076,0.052,0.148,0.075,0.224c0.711,2.408,1.593,4.752,2.635,7.021c1.044,2.271,2.247,4.459,3.595,6.548
	c0.11,0.171,0.216,0.343,0.328,0.513c0.628,0.947,1.284,1.872,1.972,2.777c0.145,0.192,0.297,0.378,0.445,0.567
	c0.077,0.098,0.16,0.19,0.238,0.288C905.391,768.558,912.401,777.931,924.754,778.946z"/>
<path style="fill:#E6386B;" d="M1003.051,765.068c-1.817-12.526-8.499-15.177-17.407-13.169c-18.39,4.144-46.32,28.247-60.89,27.048
	c-12.354-1.016-19.363-10.389-28.342-14.238c-0.006-0.003-0.013-0.006-0.019-0.009c-5.855-2.504-12.542-2.678-22.12,3.42
	c-6.641,4.227-9.726,8.745-10.436,13.281c0.403-0.089,0.798-0.227,1.214-0.227c3.31,0,6.245,2.889,8.265,7.37
	c0.095-0.166,0.208-0.288,0.307-0.448c-0.378-2.635-0.242-5.487,0.773-8.607c6.37-19.562,20.318,3.773,32.573,2.679
	c2.84-0.254,4.459,1.658,5.099,4.588c3.216,0.13,6.069,2.944,8.042,7.322c1.951-3.398,4.505-5.525,7.334-5.525
	c3.31,0,6.244,2.889,8.264,7.37c1.952-3.399,4.505-5.526,7.334-5.526c3.31,0,6.245,2.889,8.265,7.37
	c1.951-3.398,4.504-5.525,7.333-5.525c3.31,0,6.245,2.888,8.265,7.369c1.951-3.398,4.504-5.526,7.333-5.526
	c3.31,0,6.245,2.89,8.265,7.371c1.951-3.399,4.504-5.526,7.334-5.526c1.254,0,2.427,0.527,3.544,1.286
	c4.429-5.919,7.944-12.629,9.36-19.963C1003.493,773.355,1003.664,769.287,1003.051,765.068z"/>
<path style="fill:#EA6782;" d="M906.969,782.167c-12.255,1.094-26.203-22.241-32.573-2.679c-1.016,3.121-1.152,5.972-0.773,8.607
	c1.911-3.113,4.336-5.077,7.026-5.077c3.311,0,6.245,2.889,8.265,7.37c1.951-3.398,4.505-5.526,7.334-5.526
	c3.31,0,6.245,2.889,8.264,7.37c1.952-3.398,4.504-5.525,7.334-5.525c0.077,0,0.146,0.045,0.222,0.048
	C911.428,783.825,909.808,781.914,906.969,782.167z"/>
<path style="fill:#CB4D5F;" d="M924.539,687.524c-32.378,7.811-26.807,41.484-26.807,41.484
	c16.876,35.02,59.894-18.539,59.894-18.539S956.916,679.713,924.539,687.524z"/>
<path style="fill:#99213D;" d="M1147.811,601.786c-9.736-12.606-20.002-18.64-28.918-16.972
	c-8.962,1.673-15.886,10.56-20.585,26.416c-11.406,38.489-6.31,52.543-0.023,57.553c3.833,3.058,9.078,3.306,14.181,0.776
	c3.442-0.841,7.501-4.88,10.194-10.59c3.542-7.511,3.372-15.034-0.38-16.804c-3.752-1.769-9.666,2.885-13.208,10.396
	c-2.573,5.456-3.162,10.89-1.866,14.148c-1.927,0.347-4.157,0.198-6.156-1.397c-3.438-2.74-10.177-13.379,1.513-52.823
	c4.128-13.929,10.057-21.99,17.146-23.315c7.194-1.347,15.926,4.097,24.59,15.321c20.9,27.076,34.51,77.213,23.398,110.638
	c1.416,0.363,2.828,0.77,4.228,1.258C1183.345,681.539,1169.375,629.72,1147.811,601.786z"/>
<path style="fill:#B82C4C;" d="M1192.362,749.841c1.672-6.308,2.055-12.64,1.416-18.768c-4.54-5.137-10.131-9.484-16.727-12.594
	c-1.689-0.797-3.401-1.486-5.126-2.088c-1.401-0.489-2.812-0.895-4.228-1.258c-23.779-6.101-49.295,5.279-60.154,28.304
	c-4.235,8.98-5.628,18.547-4.648,27.747c6.58,7.402,15.319,13.032,25.609,15.759C1156.383,794.331,1184.973,777.72,1192.362,749.841
	z"/>
<path style="fill:#99213D;" d="M1206.702,760.666c-0.062-0.636-0.115-1.271-0.201-1.902c-0.221-1.633-0.52-3.249-0.892-4.848
	c-0.066-0.282-0.103-0.571-0.174-0.852c-0.477-1.907-1.078-3.778-1.765-5.618c-0.138-0.367-0.303-0.721-0.449-1.085
	c-0.597-1.497-1.26-2.964-1.993-4.401c-0.202-0.394-0.41-0.782-0.622-1.172c-0.802-1.479-1.675-2.917-2.621-4.317
	c-0.158-0.234-0.305-0.475-0.467-0.706c-1.158-1.653-2.4-3.251-3.744-4.764c0.002,0.023,0.002,0.048,0.005,0.071
	c0.639,6.128,0.256,12.46-1.416,18.768c-7.389,27.88-35.979,44.49-63.858,37.102c-10.291-2.727-19.029-8.357-25.609-15.759
	c-0.003-0.004-0.007-0.007-0.01-0.01c0.009,0.081,0.026,0.159,0.034,0.24c0.277,2.494,0.732,4.956,1.358,7.37
	c0.628,2.42,1.426,4.785,2.386,7.078c0.078,0.187,0.152,0.376,0.232,0.562c0.451,1.044,0.935,2.069,1.453,3.083
	c0.109,0.212,0.224,0.42,0.335,0.63c0.059,0.112,0.126,0.218,0.186,0.329c8.16,5.37,13.41,15.83,25.392,19.005
	c14.131,3.745,45.869-15.064,64.701-15.905c0.118-0.187,0.217-0.388,0.333-0.577c0.308-0.503,0.579-1.038,0.871-1.555
	c0.57-1.006,1.135-2.014,1.641-3.066c0.308-0.642,0.573-1.312,0.857-1.97c0.398-0.923,0.802-1.84,1.149-2.794
	c0.348-0.952,0.628-1.911,0.918-2.871c0.166-0.552,0.377-1.081,0.526-1.643c0.032-0.122,0.041-0.244,0.073-0.367
	c0.526-2.033,0.939-4.076,1.212-6.125c0.028-0.207,0.031-0.411,0.056-0.617c0.214-1.774,0.331-3.546,0.362-5.316
	c0.004-0.232,0.046-0.466,0.047-0.697c0.002-0.388-0.056-0.765-0.063-1.151C1206.918,763.426,1206.838,762.044,1206.702,760.666z"/>
<path style="fill:#E6386B;" d="M1213.777,809.595c0.417-12.65-5.694-16.437-14.816-16.029c-18.832,0.841-50.57,19.65-64.701,15.905
	c-11.982-3.176-17.232-13.635-25.392-19.005c-0.007-0.004-0.012-0.008-0.018-0.012c-5.323-3.497-11.874-4.845-22.377-0.529
	c-4.275,1.757-7.321,3.837-9.452,6.124c-3.371,3.617-4.343,7.773-3.728,12.111c1.036,1.185,1.998,2.593,2.788,4.341
	c1.357-1.16,2.852-1.828,4.43-1.828c0.607,0,1.186,0.196,1.764,0.382c-0.172-3.121,0.459-6.45,2.317-9.918
	c9.714-18.134,19.335,7.292,31.592,8.373c6.303,0.555,4.875,10.489,0.218,18.183c0.701-0.278,1.423-0.451,2.168-0.451
	c3.305,0,6.237,2.88,8.256,7.35c1.357-1.16,2.852-1.828,4.43-1.828c3.551,0,6.676,3.314,8.691,8.373
	c1.989-3.803,4.717-6.16,7.73-6.16c3.551,0,6.677,3.314,8.691,8.373c1.989-3.803,4.716-6.16,7.73-6.16
	c3.551,0,6.676,3.313,8.691,8.373c1.989-3.803,4.716-6.16,7.73-6.16c3.406,0,6.408,3.068,8.427,7.781
	c0.377-0.256,0.753-0.51,1.128-0.773c1.67-2.609,3.723-4.268,5.987-4.622C1205.507,833.772,1213.333,823.11,1213.777,809.595z"/>
<path style="fill:#EA6782;" d="M1116.185,809.51c-12.256-1.081-21.878-26.507-31.592-8.373c-1.858,3.468-2.489,6.797-2.317,9.918
	c2.571,0.829,4.843,3.319,6.491,6.968c1.358-1.16,2.851-1.828,4.43-1.828c3.306,0,6.237,2.88,8.257,7.351
	c1.357-1.16,2.851-1.828,4.43-1.828c3.306,0,6.237,2.88,8.256,7.35c0.717-0.613,1.476-1.063,2.262-1.376
	C1121.061,819.999,1122.489,810.065,1116.185,809.51z"/>
<path style="fill:#CB4D5F;" d="M1178.675,747.851c0,0,4.717-30.401-28.53-28.413c-33.247,1.989-33.693,36.117-33.693,36.117
	C1126.899,793,1178.675,747.851,1178.675,747.851z"/>
<path style="fill:#EBD2B7;" d="M1549.241,1258.986c44.6-66.283,66.201-142.859,54.781-201.436c-1.059,0.657-2.166,1.107-3.338,1.107
	c-6.086,0-11.018-9.566-11.018-21.367c0-2.195,0.221-4.272,0.538-6.266c-1.886,2.934-4.25,4.762-6.856,4.762
	c-5.245,0-9.614-7.121-10.727-16.639c-1.471,1.413-3.106,2.279-4.859,2.279c-3.498,0-6.577-3.221-8.595-8.148
	c-1.893,2.973-4.272,4.828-6.897,4.828c-5.02,0-9.208-6.55-10.537-15.453c-1.619,1.811-3.471,2.927-5.474,2.927
	c-5.02,0-9.208-6.55-10.537-15.453c-1.619,1.812-3.471,2.927-5.474,2.927c-5.02,0-9.208-6.55-10.537-15.453
	c-1.619,1.811-3.471,2.927-5.474,2.927c-3.325,0-6.27-2.916-8.291-7.432c-1.637,1.867-3.519,3.011-5.555,3.011
	c-3.325,0-6.271-2.915-8.29-7.431c-1.636,1.867-3.519,3.012-5.555,3.012c-3.325,0-6.27-2.916-8.291-7.432
	c-1.636,1.867-3.519,3.011-5.555,3.011c-3.325,0-6.27-2.915-8.291-7.431c-1.636,1.867-3.519,3.012-5.555,3.012
	c-3.325,0-6.27-2.916-8.29-7.432c-1.637,1.867-3.519,3.011-5.555,3.011c-3.325,0-6.27-2.915-8.291-7.431
	c-1.636,1.867-3.518,3.011-5.555,3.011c-3.325,0-6.27-2.916-8.29-7.431c-1.636,1.867-3.519,3.011-5.555,3.011
	c-3.325,0-6.27-2.916-8.29-7.431c-1.637,1.867-3.52,3.011-5.555,3.011c-3.325,0-6.27-2.916-8.291-7.432
	c-1.636,1.867-3.519,3.012-5.555,3.012c-3.325,0-6.27-2.916-8.29-7.431c-1.636,1.867-3.519,3.011-5.555,3.011
	c-3.325,0-6.27-2.916-8.291-7.431c-1.637,1.867-3.518,3.012-5.555,3.012c-3.325,0-6.27-2.916-8.29-7.432
	c-1.637,1.867-3.519,3.011-5.555,3.011c-3.325,0-6.27-2.916-8.29-7.431c-1.637,1.867-3.519,3.012-5.555,3.012
	c-4.247,0-7.889-4.711-9.729-11.536c-2.008,4.104-4.83,6.694-7.977,6.694c-2.981,0-5.676-2.318-7.66-6.048
	c-1.769,2.345-3.904,3.725-6.208,3.725c-3.122,0-5.927-2.541-7.931-6.586c-2.005,4.045-4.809,6.586-7.93,6.586
	c-3.122,0-5.927-2.541-7.931-6.586c-2.005,4.045-4.81,6.586-7.931,6.586c-4.548,0-8.45-5.349-10.132-12.976
	c-1.673,1.989-3.623,3.196-5.729,3.196c-4.548,0-8.45-5.349-10.132-12.976c-1.673,1.989-3.623,3.195-5.729,3.195
	c-4.548,0-8.45-5.349-10.132-12.976c-1.674,1.989-3.622,3.195-5.729,3.195c-3.551,0-6.677-3.314-8.692-8.373
	c-1.989,3.802-4.716,6.16-7.73,6.16c-3.551,0-6.676-3.314-8.691-8.373c-1.989,3.803-4.716,6.16-7.729,6.16
	c-3.552,0-6.677-3.314-8.692-8.373c-1.989,3.803-4.716,6.16-7.73,6.16c-3.552,0-6.677-3.313-8.692-8.373
	c-1.989,3.803-4.715,6.16-7.73,6.16c-3.551,0-6.677-3.314-8.691-8.374c-1.99,3.803-4.716,6.16-7.73,6.16
	c-3.305,0-6.237-2.881-8.256-7.351c-1.357,1.16-2.851,1.828-4.43,1.828c-3.306,0-6.236-2.88-8.256-7.35
	c-1.357,1.16-2.851,1.828-4.43,1.828c-3.305,0-6.237-2.881-8.256-7.351c-1.358,1.16-2.851,1.828-4.431,1.828
	c-3.305,0-6.236-2.88-8.255-7.35c-1.358,1.159-2.852,1.827-4.43,1.827c-3.306,0-6.237-2.88-8.256-7.35
	c-1.357,1.159-2.851,1.828-4.43,1.828c-3.31,0-6.245-2.889-8.264-7.37c-1.951,3.398-4.505,5.526-7.333,5.526
	c-3.31,0-6.245-2.889-8.265-7.37c-1.951,3.398-4.505,5.526-7.333,5.526c-3.311,0-6.245-2.889-8.265-7.37
	c-1.952,3.398-4.505,5.526-7.334,5.526c-3.31,0-6.245-2.889-8.264-7.37c-1.952,3.398-4.505,5.526-7.334,5.526
	c-3.31,0-6.245-2.889-8.264-7.37c-1.952,3.398-4.504,5.525-7.334,5.525c-3.31,0-6.245-2.889-8.264-7.37
	c-1.952,3.399-4.505,5.526-7.334,5.526c-3.31,0-6.245-2.889-8.264-7.37c-1.951,3.398-4.504,5.526-7.334,5.526
	c-3.31,0-6.244-2.889-8.264-7.37c-1.951,3.398-4.504,5.526-7.334,5.526c-3.31,0-6.245-2.889-8.264-7.37
	c-1.951,3.398-4.504,5.526-7.334,5.526c-3.31,0-6.245-2.889-8.264-7.37c-1.951,3.398-4.505,5.526-7.334,5.526
	c-3.31,0-6.245-2.889-8.265-7.37c-1.951,3.398-4.504,5.526-7.333,5.526c-3.31,0-6.245-2.89-8.264-7.371
	c-1.951,3.399-4.505,5.526-7.334,5.526c-3.31,0-6.245-2.889-8.264-7.37c-1.951,3.398-4.505,5.526-7.334,5.526
	c-3.31,0-6.245-2.889-8.264-7.37c-1.951,3.398-4.504,5.526-7.334,5.526c-3.31,0-6.245-2.889-8.264-7.37
	c-1.952,3.398-4.505,5.526-7.334,5.526c-3.015,0-5.742-2.358-7.732-6.163c-2.02,4.846-5.072,8.008-8.536,8.008
	c-3.015,0-5.742-2.359-7.731-6.163c-2.02,4.846-5.072,8.008-8.536,8.008c-3.33,0-6.279-2.925-8.3-7.453
	c-2.02,4.528-4.969,7.453-8.299,7.453c-3.212,0-6.077-2.711-8.092-6.964c-2.014,4.253-4.879,6.964-8.091,6.964
	c-3.289,0-6.208-2.851-8.227-7.281c-1.852,6.75-5.472,11.4-9.691,11.4c-2.974,0-5.662-2.309-7.645-6.024
	c-1.926,6.215-5.403,10.416-9.416,10.416c-3.013,0-5.737-2.356-7.727-6.156c-1.673,7.67-5.589,13.052-10.153,13.052
	c-2.328,0-4.48-1.417-6.259-3.807c-1.965,5.866-5.358,9.765-9.234,9.765c-3.776,0-7.104-3.692-9.089-9.308
	c-0.953,9.92-5.422,17.44-10.815,17.44c-2.161,0-4.162-1.251-5.864-3.337c-1.918,6.282-5.412,10.539-9.45,10.539
	c-2.566,0-4.897-1.772-6.77-4.625c-1.802,7.04-5.509,11.924-9.838,11.924c-1.08,0-2.102-0.394-3.088-0.956
	c-1.4,8.682-5.53,15.024-10.469,15.024c-2.687,0-5.116-1.939-7.028-5.038c0.204,1.623,0.341,3.294,0.341,5.038
	c0,11.8-4.933,21.366-11.019,21.366c-1.964,0-3.782-1.08-5.38-2.827c0.023,0.56,0.087,1.096,0.087,1.667
	c0,11.8-4.933,21.366-11.018,21.366c-2.266,0-4.371-1.333-6.122-3.609c-0.799,10.277-5.331,18.181-10.853,18.181
	c-0.364,0-0.707-0.141-1.062-0.208c-35.766,92.22-1.171,190.043,18.059,241.857c1.367-0.098,2.701-0.212,4.096-0.296
	C752.716,1170.601,1286.117,1203.565,1549.241,1258.986z"/>
<path style="fill:#EBD2B7;" d="M643.777,902.413c103.283-138.695,476.378-20.656,476.378-20.656s-195.659,374.771-464.385,256.733
	C655.77,1138.489,540.493,1041.108,643.777,902.413z"/>
<path style="fill:#EBD2B7;" d="M492.41,1736.349c588.516,131.38,1151.577,0,1151.577,0c4.034-2.467,7.931-5.246,11.721-8.255
	c4.426-9.645,8.505-19.758,12.148-30.343c4.88-14.177,9.028-29.099,12.546-44.399c-158.391,20.361-344.729,32.109-544.18,32.109
	c-0.072,0-0.143,0-0.215,0c-1.45,34.378-11.001,60.345-35.532,63.849c-80.432,11.49-463.441,11.49-593.664-57.452
	c0,0-14.535-21.063-26.018-55.009c-13.644-2.316-27.035-4.695-40.097-7.149c5.694,23.741,13.422,45.904,22.514,66.199
	c3.67,8.193,7.583,16.038,11.652,23.599C480.713,1725.666,486.586,1731.296,492.41,1736.349z"/>
<path style="fill:#D6B7A4;" d="M1120.205,1559.028c1.112,4.896,2.212,9.926,3.288,15.052c0.03,0.143,0.06,0.285,0.09,0.428
	c1.075,5.136,2.121,10.363,3.123,15.656c0.004,0.019,0.007,0.038,0.011,0.058c6.092,32.204,10.496,66.629,9.289,95.238
	c0.072,0,0.143,0,0.215,0c199.451,0,385.788-11.748,544.18-32.109c0.012-0.001,0.024-0.002,0.035-0.004
	c0.133-0.58,0.242-1.172,0.374-1.752c0.905-4.004,1.763-8.034,2.577-12.084c0.177-0.883,0.37-1.758,0.543-2.643
	c1-5.11,1.938-10.248,2.797-15.409c0.009-0.053,0.016-0.105,0.025-0.158c0.823-4.952,1.568-9.924,2.261-14.903
	c0.16-1.149,0.305-2.297,0.458-3.447c0.533-3.997,1.029-7.996,1.48-11.994c0.14-1.239,0.278-2.476,0.41-3.714
	c0.452-4.239,0.858-8.473,1.219-12.699c0.07-0.814,0.15-1.629,0.216-2.442c0.846-10.387,1.422-20.709,1.731-30.875
	c0.017-0.561,0.024-1.115,0.04-1.675c0.122-4.425,0.192-8.817,0.214-13.173c0.002-0.431,0.02-0.873,0.021-1.302
	c-0.006,0.001-0.013,0.001-0.019,0.002c-161.431,21.52-353.039,33.988-558.562,33.988
	C1130.868,1559.068,1125.54,1559.044,1120.205,1559.028z"/>
<path style="fill:#D6B7A4;" d="M480.789,1636.838c-0.645-1.907-1.277-3.863-1.9-5.851c-0.087-0.278-0.175-0.555-0.261-0.835
	c-1.268-4.094-2.479-8.349-3.609-12.758c-0.065-0.253-0.128-0.509-0.193-0.763c-0.54-2.13-1.061-4.292-1.558-6.491
	c-0.019-0.084-0.039-0.165-0.058-0.248c-1.061-4.709-2.012-9.573-2.839-14.574c-0.027-0.167-0.056-0.333-0.083-0.499
	c-0.82-5.03-1.503-10.2-2.025-15.496c-0.008-0.076-0.014-0.151-0.022-0.227c-2.108-21.59-1.48-45.268,3.864-70.119
	c0-0.003,0.001-0.006,0.002-0.009c-13.589-2.358-26.919-4.779-39.916-7.276c-0.018-0.003-0.037-0.007-0.055-0.01
	c-0.086,0.86-0.12,1.701-0.2,2.559c-0.427,4.6-0.808,9.185-1.073,13.725c-0.027,0.467-0.06,0.936-0.085,1.403
	c-0.285,5.208-0.458,10.372-0.534,15.495c-0.008,0.545-0.014,1.089-0.02,1.633c-0.055,5.149-0.016,10.257,0.132,15.314
	c0.01,0.344,0.026,0.685,0.037,1.028c0.338,10.613,1.1,21.025,2.262,31.21c0.011,0.104,0.021,0.209,0.033,0.312
	c0.573,4.992,1.25,9.925,2.006,14.807c0.056,0.363,0.111,0.726,0.168,1.089c0.758,4.802,1.6,9.551,2.524,14.243
	c0.064,0.325,0.131,0.65,0.196,0.975c0.958,4.797,1.991,9.541,3.112,14.217c0.001,0.002,0.001,0.005,0.002,0.006h0
	c13.062,2.454,26.453,4.833,40.097,7.149C480.791,1636.845,480.79,1636.841,480.789,1636.838z"/>
<path style="fill:#C39179;" d="M492.41,1736.349c-5.823-5.052-11.697-10.682-17.549-16.851c-0.027-0.029-0.054-0.053-0.081-0.082
	c0.249,0.464,0.515,0.895,0.766,1.357c2.156,3.969,4.342,7.882,6.588,11.67c0.01,0.016,0.019,0.033,0.029,0.049
	c2.493,4.204,5.038,8.293,7.623,12.265c0.027,0.041,0.053,0.082,0.081,0.123c2.562,3.93,5.164,7.743,7.8,11.437
	c0.059,0.083,0.118,0.167,0.178,0.25c2.608,3.646,5.246,7.176,7.908,10.585c0.086,0.11,0.17,0.22,0.256,0.33
	c2.637,3.367,5.295,6.614,7.969,9.741c0.112,0.131,0.223,0.266,0.336,0.397c2.66,3.099,5.334,6.077,8.013,8.932
	c0.118,0.126,0.236,0.258,0.355,0.384c2.701,2.865,5.406,5.605,8.109,8.216c0.087,0.083,0.173,0.171,0.259,0.254
	c2.778,2.674,5.553,5.217,8.316,7.614c540.043,120.558,1056.727,0,1056.727,0c3.027-1.852,5.971-3.89,8.848-6.076
	c0.098-0.074,0.198-0.141,0.295-0.215c2.865-2.192,5.651-4.557,8.369-7.061c0.068-0.063,0.138-0.121,0.205-0.184
	c1.932-1.787,3.812-3.678,5.67-5.616c0.355-0.371,0.706-0.75,1.058-1.126c1.723-1.837,3.416-3.731,5.075-5.692
	c0.091-0.107,0.183-0.21,0.273-0.317c2.657-3.167,5.216-6.517,7.708-9.985c0.276-0.384,0.554-0.763,0.828-1.152
	c2.544-3.597,5.003-7.344,7.379-11.226c0.03-0.049,0.059-0.099,0.089-0.147c2.365-3.872,4.648-7.877,6.845-12.014
	c0.034-0.064,0.068-0.128,0.102-0.192c2.244-4.277,4.426-8.644,6.509-13.15c0.123-0.266,0.255-0.519,0.377-0.785
	c-0.005,0.004-0.01,0.007-0.016,0.012c-3.79,3.009-7.687,5.788-11.721,8.255C1643.987,1736.349,1080.926,1867.728,492.41,1736.349z"
	/>
<path style="fill:#F0DFCB;" d="M1100.474,1485.033c0,0-365.344-114.059-555.363-103.412
	c-42.862,42.862-64.254,86.664-73.004,127.346c176.481,30.622,401.922,49.282,648.099,50.06c1.112,4.895,2.214,9.927,3.288,15.052
	c-1.076-5.126-2.176-10.156-3.288-15.052C1110.694,1517.164,1100.474,1485.033,1100.474,1485.033z"/>
<path style="fill:#F0DFCB;" d="M1126.717,1590.222c6.088,32.197,10.496,66.629,9.289,95.238
	c-248.295-0.01-476.23-18.229-655.214-48.612c11.483,33.946,26.018,55.009,26.018,55.009
	c130.223,68.942,513.232,68.942,593.664,57.452c24.531-3.505,34.082-29.471,35.532-63.849
	C1137.213,1656.851,1132.809,1622.426,1126.717,1590.222z"/>
<path style="fill:#EBD2B7;" d="M472.105,1508.977c-5.344,24.85-5.966,48.531-3.864,70.119c0.007,0.076,0.014,0.151,0.022,0.227
	c0.522,5.297,1.205,10.466,2.025,15.496c0.027,0.167,0.056,0.332,0.083,0.499c0.826,5.001,1.777,9.865,2.839,14.574
	c0.018,0.083,0.039,0.165,0.058,0.248c0.498,2.199,1.019,4.361,1.558,6.491c0.065,0.254,0.128,0.51,0.193,0.763
	c1.13,4.409,2.341,8.664,3.609,12.758c0.087,0.28,0.174,0.556,0.261,0.835c0.623,1.988,1.255,3.944,1.9,5.851
	c0.001,0.003,0.002,0.007,0.004,0.01c178.984,30.382,406.919,48.602,655.214,48.612c1.207-28.609-3.201-63.041-9.289-95.238
	c-0.004-0.02-0.007-0.039-0.011-0.058c-1.002-5.293-2.048-10.52-3.123-15.656c-0.03-0.143-0.059-0.285-0.09-0.428
	c-1.075-5.125-2.176-10.157-3.288-15.052c-246.177-0.778-471.618-19.438-648.099-50.06c8.751-40.682,30.142-84.484,73.004-127.346
	c190.019-10.647,555.363,103.412,555.363,103.412s10.22,32.131,19.731,73.995c5.335,0.016,10.662,0.04,16.016,0.04
	c205.523,0,397.131-12.468,558.562-33.988c0.029-10.663-0.205-21.117-0.765-31.198c-8.318,2.342-59.493,14.504-54.371-42.573
	c8.937-99.582-198.505-200.344-225.316-70.39c0,0,25.536,160.222-12.767,160.223c-57.451,0-13.857-97.456-10.214-153.57
	c6.384-98.306-140.593-161.833-168.524-49.791c-23.151,92.867,81.708,68.941,58.728,122.563
	c-22.98,53.621-106.276,73.797-84.262,17.874c38.301-97.297-103.412-34.47-52.345-97.297c102.136-69.95,48.515-95.484,48.515-95.484
	s-67.665-52.344-76.602,30.641c-8.937,82.985-20.417,101.82-41.812,119.052c-25.459,20.506-82.028-18.193-37.343-69.261
	c44.684-51.068,72.771-70.218,38.301-97.029c-34.471-26.81-107.243,1.277-86.816,51.068c20.427,49.791-1.37,124.68-30.959,120.967
	c-34.11-4.28,7.021-53.407,21.066-92.88c8.997-25.288-10.533-105.966-71.814-70.218c0,0-33.445,12.45-24.258,81.813
	c9.188,69.362-58.728,51.172-40.854,0c17.874-51.173-42.131-137.988-56.175-74.153c-14.044,63.835-77.878,118.733-75.325,30.641
	c2.553-88.092-66.389-75.325-62.558-11.49c3.83,63.835-66.388,77.879-67.665-1.277c-1.277-79.155-66.389-72.771-62.559-6.383
	c3.83,66.388-11.78,73.68-32.701,37.478l0,0c-31.71,58.396-47.941,114.767-53.2,167.287c12.996,2.498,26.326,4.918,39.916,7.276
	C472.106,1508.97,472.105,1508.974,472.105,1508.977z"/>
<path style="fill:#E6386B;" d="M518.091,1296.926c-3.83-66.388,61.281-72.772,62.559,6.383c1.276,79.155,71.495,65.111,67.665,1.277
	c-3.831-63.835,65.111-76.602,62.558,11.49c-2.553,88.092,61.281,33.194,75.325-30.641c14.044-63.835,74.049,22.98,56.175,74.153
	c-17.874,51.172,50.042,69.362,40.854,0c-9.188-69.363,24.258-81.813,24.258-81.813c61.281-35.748,80.811,44.93,71.814,70.218
	c-14.044,39.473-55.176,88.6-21.066,92.88c29.59,3.713,51.387-71.176,30.959-120.967c-20.427-49.791,52.344-77.878,86.816-51.068
	c34.47,26.811,6.383,45.961-38.301,97.029c-44.685,51.068,11.884,89.767,37.343,69.261c21.395-17.232,32.875-36.067,41.812-119.052
	c8.937-82.985,76.602-30.641,76.602-30.641s53.621,25.534-48.515,95.484c-51.068,62.827,90.646,0,52.345,97.297
	c-22.014,55.923,61.282,35.748,84.262-17.874c22.98-53.621-81.879-29.696-58.728-122.563
	c27.931-112.042,174.907-48.514,168.524,49.791c-3.644,56.114-47.238,153.571,10.214,153.57
	c38.303-0.001,12.767-160.223,12.767-160.223c26.811-129.954,234.253-29.193,225.316,70.39
	c-5.122,57.077,46.052,44.915,54.371,42.573c0.732-0.206,1.168-0.345,1.168-0.345s1.295-114.902-0.385-180.014
	c-13.599-19.808-67.777-38.153-145.561-54.537c-263.125-55.421-796.525-88.384-944.335-79.516c-1.395,0.084-2.729,0.199-4.096,0.296
	c-186.311,13.3-115.423,154.631-115.42,154.639l0,0C506.311,1370.606,521.921,1363.314,518.091,1296.926z"/>
<path style="fill:#EA6782;" d="M515.857,1218.728c35.35,21.595,136.926,13.406,165.651,3.909
	c28.726-9.496,61.282,34.392,82.347,9.496c21.065-24.896,80.595,41.595,98.625,26.211c49.791-42.489,97.746,15.161,117.775-14.721
	c20.03-29.881,112.711,2.169,137.883,7.66c43.088,9.4,68.941-33.513,68.941-33.513s-373.433-22.023-495.997-29.683
	C568.521,1180.427,500.264,1209.203,515.857,1218.728z"/>
<path style="fill:#F096A2;" d="M505.963,1348.632c24.258-15.959-28.726-70.219-28.726-70.219S484.259,1353.739,505.963,1348.632z"/>
<path style="fill:#F096A2;" d="M611.578,1309.379c-15.352-4.544-9.225-49.478-40.504-60.968
	c-2.161-0.794,19.789,26.811,17.236,62.558c-2.553,35.748,26.172,46.599,38.939,33.194
	C640.016,1330.758,625.996,1313.647,611.578,1309.379z"/>
<path style="fill:#F096A2;" d="M712.149,1260.683c0,0,12.448,54.755,10.533,80.607c-1.915,25.853,23.43,12.114,32.556-6.702
	C772.473,1299.051,712.149,1260.683,712.149,1260.683z"/>
<path style="fill:#F0DFCB;" d="M655.77,1138.489c268.726,118.038,464.385-256.733,464.385-256.733S747.06,763.718,643.777,902.413
	C540.493,1041.108,655.77,1138.489,655.77,1138.489z"/>
<path style="fill:#B82C4C;" d="M594.667,919.936c1.751,2.275,3.856,3.609,6.122,3.609c6.085,0,11.018-9.566,11.018-21.366
	c0-0.571-0.064-1.107-0.087-1.667c1.598,1.747,3.416,2.827,5.38,2.827c6.086,0,11.019-9.566,11.019-21.366
	c0-1.744-0.137-3.414-0.341-5.038c1.912,3.098,4.341,5.038,7.028,5.038c4.938,0,9.069-6.342,10.469-15.024
	c0.986,0.562,2.009,0.956,3.088,0.956c4.328,0,8.035-4.883,9.838-11.924c1.873,2.853,4.204,4.625,6.77,4.625
	c4.038,0,7.532-4.258,9.45-10.539c1.701,2.086,3.703,3.337,5.864,3.337c5.392,0,9.862-7.52,10.815-17.44
	c1.986,5.615,5.313,9.308,9.089,9.308c3.875,0,7.269-3.899,9.234-9.765c1.779,2.39,3.931,3.807,6.259,3.807
	c4.564,0,8.48-5.382,10.153-13.052c1.99,3.8,4.714,6.156,7.727,6.156c4.013,0,7.489-4.201,9.416-10.416
	c1.983,3.714,4.671,6.024,7.645,6.024c4.218,0,7.839-4.649,9.691-11.4c2.019,4.43,4.938,7.281,8.227,7.281
	c3.212,0,6.077-2.711,8.091-6.964c2.014,4.253,4.879,6.964,8.092,6.964c3.33,0,6.279-2.925,8.299-7.453
	c2.021,4.528,4.97,7.453,8.3,7.453c3.464,0,6.516-3.162,8.536-8.008c1.99,3.804,4.716,6.163,7.731,6.163
	c3.464,0,6.516-3.162,8.536-8.008c1.99,3.805,4.717,6.163,7.732,6.163c2.829,0,5.382-2.127,7.334-5.526
	c2.02,4.481,4.954,7.37,8.264,7.37c2.83,0,5.383-2.127,7.334-5.526c2.02,4.481,4.955,7.37,8.264,7.37
	c2.829,0,5.383-2.128,7.334-5.526c2.02,4.481,4.954,7.37,8.264,7.37c2.829,0,5.383-2.127,7.334-5.526
	c2.019,4.481,4.954,7.371,8.264,7.371c2.829,0,5.383-2.128,7.333-5.526c2.02,4.481,4.955,7.37,8.265,7.37
	c2.829,0,5.383-2.127,7.334-5.526c2.02,4.481,4.954,7.37,8.264,7.37c2.829,0,5.382-2.127,7.334-5.526
	c2.02,4.481,4.954,7.37,8.264,7.37c2.83,0,5.383-2.127,7.334-5.526c2.02,4.481,4.954,7.37,8.264,7.37
	c2.83,0,5.382-2.128,7.334-5.526c2.019,4.481,4.954,7.37,8.264,7.37c2.829,0,5.383-2.127,7.334-5.526
	c2.019,4.482,4.954,7.37,8.264,7.37c2.829,0,5.382-2.127,7.334-5.525c2.02,4.481,4.954,7.37,8.264,7.37
	c2.829,0,5.382-2.128,7.334-5.526c2.019,4.481,4.954,7.37,8.264,7.37c2.829,0,5.382-2.127,7.334-5.526
	c2.02,4.481,4.954,7.37,8.265,7.37c2.828,0,5.382-2.127,7.333-5.526c2.02,4.481,4.954,7.37,8.265,7.37
	c2.828,0,5.382-2.127,7.333-5.526c2.02,4.481,4.954,7.37,8.264,7.37c1.579,0,3.073-0.669,4.43-1.828
	c2.02,4.47,4.951,7.35,8.256,7.35c1.579,0,3.073-0.668,4.43-1.827c2.02,4.47,4.95,7.35,8.255,7.35c1.579,0,3.073-0.668,4.431-1.828
	c2.019,4.47,4.95,7.351,8.256,7.351c1.579,0,3.073-0.668,4.43-1.828c2.02,4.47,4.95,7.35,8.256,7.35c1.579,0,3.073-0.668,4.43-1.828
	c2.02,4.47,4.951,7.351,8.256,7.351c3.014,0,5.74-2.357,7.73-6.16c2.015,5.059,5.14,8.374,8.691,8.374
	c3.014,0,5.741-2.358,7.73-6.16c2.015,5.059,5.14,8.373,8.692,8.373c3.014,0,5.741-2.357,7.73-6.16
	c2.015,5.059,5.14,8.373,8.692,8.373c3.014,0,5.74-2.357,7.729-6.16c2.015,5.06,5.14,8.373,8.691,8.373
	c3.014,0,5.741-2.358,7.73-6.16c2.015,5.059,5.14,8.373,8.692,8.373c2.107,0,4.055-1.206,5.729-3.195
	c1.682,7.627,5.583,12.976,10.132,12.976c2.107,0,4.056-1.207,5.729-3.195c1.682,7.627,5.584,12.976,10.132,12.976
	c2.107,0,4.056-1.207,5.729-3.196c1.682,7.627,5.584,12.976,10.132,12.976c3.121,0,5.926-2.541,7.931-6.586
	c2.004,4.045,4.809,6.586,7.931,6.586c3.121,0,5.926-2.541,7.93-6.586c2.004,4.045,4.809,6.586,7.931,6.586
	c2.304,0,4.439-1.38,6.208-3.725c1.984,3.731,4.679,6.048,7.66,6.048c3.148,0,5.969-2.59,7.977-6.694
	c1.839,6.826,5.482,11.536,9.729,11.536c2.036,0,3.919-1.145,5.555-3.012c2.02,4.515,4.965,7.431,8.29,7.431
	c2.036,0,3.919-1.144,5.555-3.011c2.02,4.515,4.965,7.432,8.29,7.432c2.036,0,3.918-1.145,5.555-3.012
	c2.021,4.516,4.966,7.431,8.291,7.431c2.036,0,3.918-1.144,5.555-3.011c2.02,4.515,4.965,7.431,8.29,7.431
	c2.036,0,3.918-1.145,5.555-3.012c2.02,4.516,4.966,7.432,8.291,7.432c2.036,0,3.919-1.145,5.555-3.011
	c2.02,4.516,4.965,7.431,8.29,7.431c2.036,0,3.919-1.145,5.555-3.011c2.02,4.515,4.965,7.431,8.29,7.431
	c2.036,0,3.918-1.144,5.555-3.011c2.021,4.516,4.966,7.431,8.291,7.431c2.036,0,3.919-1.145,5.555-3.011
	c2.02,4.516,4.965,7.432,8.29,7.432c2.036,0,3.918-1.145,5.555-3.012c2.02,4.516,4.966,7.431,8.291,7.431
	c2.036,0,3.918-1.144,5.555-3.011c2.02,4.515,4.966,7.432,8.291,7.432c2.036,0,3.918-1.145,5.555-3.012
	c2.02,4.516,4.965,7.431,8.29,7.431c2.036,0,3.918-1.144,5.555-3.011c2.021,4.516,4.966,7.432,8.291,7.432
	c2.003,0,3.855-1.115,5.474-2.927c1.329,8.903,5.518,15.453,10.537,15.453c2.003,0,3.855-1.115,5.474-2.927
	c1.33,8.903,5.518,15.453,10.537,15.453c2.003,0,3.856-1.116,5.474-2.927c1.329,8.904,5.518,15.453,10.537,15.453
	c2.625,0,5.004-1.855,6.897-4.828c2.018,4.927,5.098,8.148,8.595,8.148c1.753,0,3.388-0.867,4.859-2.279
	c1.113,9.517,5.483,16.639,10.727,16.639c2.607,0,4.97-1.828,6.856-4.762c-0.317,1.994-0.538,4.07-0.538,6.266
	c0,11.8,4.932,21.367,11.018,21.367c1.172,0,2.279-0.45,3.338-1.107c4.442-2.755,7.68-10.732,7.68-20.26
	c0-11.8-4.933-21.366-11.018-21.366c-2.607,0-4.97,1.828-6.856,4.761c0.317-1.993,0.538-4.07,0.538-6.265
	c0-11.8-4.933-21.366-11.018-21.366c-1.753,0-3.388,0.867-4.86,2.28c-1.022-8.74-4.801-15.388-9.471-16.428
	c-0.416-0.093-0.827-0.213-1.255-0.213c-2.167,0-4.147,1.312-5.843,3.423c-0.359,0.448-0.723,0.885-1.054,1.404
	c-0.117-0.287-0.251-0.548-0.376-0.823c-2.015-4.447-4.926-7.324-8.219-7.324c-2.003,0-3.856,1.115-5.475,2.927
	c-1.329-8.904-5.517-15.453-10.537-15.453c-2.003,0-3.856,1.115-5.474,2.927c-1.329-8.903-5.518-15.453-10.537-15.453
	c-2.003,0-3.855,1.115-5.474,2.927c-0.833-5.58-2.79-10.231-5.37-12.929c-1.536-1.608-3.293-2.523-5.167-2.523
	c-2.036,0-3.918,1.145-5.555,3.012c-2.02-4.516-4.966-7.432-8.291-7.432c-2.036,0-3.918,1.145-5.555,3.011
	c-2.02-4.515-4.965-7.431-8.29-7.431c-1.694,0-3.272,0.825-4.7,2.166c-0.288,0.271-0.579,0.532-0.855,0.845
	c-1.919-4.29-4.686-7.052-7.807-7.326c-0.164-0.014-0.317-0.105-0.483-0.105c-2.036,0-3.918,1.144-5.555,3.011
	c-2.021-4.515-4.966-7.432-8.291-7.432c-2.036,0-3.919,1.145-5.555,3.011c-0.566-1.267-1.221-2.366-1.921-3.352
	c-1.796-2.529-3.977-4.078-6.369-4.078c-2.036,0-3.918,1.144-5.555,3.011c-2.02-4.516-4.966-7.431-8.291-7.431
	c-2.036,0-3.918,1.144-5.555,3.011c-2.02-4.515-4.966-7.431-8.291-7.431c-2.036,0-3.918,1.145-5.554,3.011
	c-1.41-3.152-3.289-5.448-5.414-6.593c-0.92-0.496-1.872-0.838-2.876-0.838c-2.036,0-3.918,1.144-5.555,3.011
	c-2.021-4.516-4.966-7.431-8.291-7.431c-2.036,0-3.919,1.145-5.555,3.011c-2.02-4.516-4.965-7.432-8.29-7.432
	c-2.036,0-3.919,1.145-5.555,3.012c-2.02-4.516-4.966-7.432-8.291-7.432c-2.036,0-3.918,1.145-5.554,3.011
	c-2.021-4.515-4.966-7.431-8.291-7.431c-2.036,0-3.918,1.145-5.555,3.011c-2.02-4.516-4.965-7.431-8.29-7.431
	c-3.148,0-5.969,2.59-7.977,6.694c-0.262-0.971-0.568-1.884-0.899-2.761c-1.997-5.294-5.187-8.774-8.83-8.774
	c-2.304,0-4.439,1.38-6.208,3.725c-1.984-3.731-4.679-6.048-7.66-6.048c-3.122,0-5.927,2.541-7.931,6.586
	c-1.095-2.209-2.442-3.91-3.936-5.052c-1.241-0.95-2.578-1.533-3.995-1.533c-1.17,0-2.272,0.457-3.327,1.116
	c-1.761,1.1-3.35,2.94-4.603,5.469c-2.005-4.045-4.81-6.586-7.931-6.586c-2.106,0-4.056,1.206-5.729,3.195
	c-1.682-7.627-5.584-12.976-10.132-12.976c-2.107,0-4.055,1.206-5.729,3.195c-1.682-7.627-5.583-12.976-10.132-12.976
	c-2.107,0-4.055,1.206-5.729,3.195c-1.682-7.627-5.584-12.976-10.132-12.976c-3.014,0-5.741,2.357-7.73,6.16
	c-2.015-5.059-5.14-8.373-8.692-8.373c-0.301,0-0.584,0.125-0.878,0.171c-2.264,0.354-4.317,2.013-5.987,4.622
	c-0.29,0.453-0.6,0.86-0.865,1.366c-0.082-0.207-0.178-0.392-0.264-0.593c-2.019-4.713-5.021-7.781-8.427-7.781
	c-3.014,0-5.741,2.357-7.73,6.16c-2.015-5.06-5.14-8.373-8.691-8.373c-3.014,0-5.741,2.357-7.73,6.16
	c-2.015-5.059-5.14-8.373-8.691-8.373c-3.014,0-5.741,2.357-7.73,6.16c-2.015-5.059-5.14-8.373-8.691-8.373
	c-1.579,0-3.073,0.668-4.43,1.828c-2.02-4.47-4.951-7.35-8.256-7.35c-0.745,0-1.466,0.173-2.168,0.451
	c-0.786,0.313-1.545,0.763-2.262,1.376c-2.02-4.47-4.951-7.35-8.256-7.35c-1.579,0-3.072,0.668-4.43,1.828
	c-2.02-4.47-4.951-7.351-8.257-7.351c-1.579,0-3.072,0.667-4.43,1.828c-1.648-3.649-3.92-6.14-6.491-6.968
	c-0.579-0.187-1.157-0.382-1.764-0.382c-1.579,0-3.073,0.669-4.43,1.828c-0.79-1.748-1.751-3.157-2.788-4.341
	c-1.614-1.845-3.455-3.009-5.469-3.009c-2.829,0-5.382,2.127-7.333,5.525c-2.02-4.481-4.954-7.37-8.264-7.37
	c-2.83,0-5.383,2.127-7.334,5.526c-2.02-4.481-4.955-7.37-8.264-7.37c-2.83,0-5.383,2.127-7.334,5.526
	c-2.02-4.481-4.955-7.37-8.264-7.37c-2.829,0-5.383,2.127-7.334,5.526c-2.02-4.481-4.954-7.37-8.264-7.37
	c-2.829,0-5.382,2.127-7.334,5.526c-1.254-2.783-2.889-4.839-4.72-6.084c-1.117-0.759-2.291-1.286-3.544-1.286
	c-2.829,0-5.382,2.127-7.334,5.526c-2.02-4.481-4.954-7.371-8.265-7.371c-2.829,0-5.382,2.127-7.333,5.526
	c-2.02-4.481-4.954-7.369-8.265-7.369c-2.829,0-5.382,2.127-7.333,5.525c-2.02-4.481-4.955-7.37-8.265-7.37
	c-2.829,0-5.382,2.127-7.334,5.526c-2.02-4.481-4.954-7.37-8.264-7.37c-2.829,0-5.383,2.127-7.334,5.525
	c-1.973-4.378-4.826-7.192-8.042-7.322c-0.076-0.003-0.146-0.048-0.222-0.048c-2.829,0-5.382,2.127-7.334,5.525
	c-2.019-4.481-4.954-7.37-8.264-7.37c-2.829,0-5.383,2.128-7.334,5.526c-2.02-4.481-4.954-7.37-8.265-7.37
	c-2.691,0-5.116,1.964-7.026,5.077c-0.098,0.16-0.211,0.282-0.307,0.448c-2.02-4.481-4.954-7.37-8.265-7.37
	c-0.416,0-0.811,0.138-1.214,0.227c-2.338,0.518-4.456,2.4-6.12,5.299c-2.02-4.481-4.954-7.37-8.265-7.37
	c-2.829,0-5.382,2.127-7.334,5.526c-2.019-4.481-4.954-7.37-8.264-7.37c-3.464,0-6.516,3.162-8.536,8.008
	c-1.989-3.805-4.717-6.163-7.732-6.163c-3.463,0-6.515,3.162-8.536,8.007c-1.054-2.014-2.323-3.585-3.724-4.653
	c-1.244-0.949-2.59-1.51-4.008-1.51c-3.33,0-6.279,2.925-8.3,7.453c-2.02-4.528-4.969-7.453-8.299-7.453
	c-3.212,0-6.077,2.711-8.092,6.963c-2.014-4.252-4.879-6.963-8.091-6.963c-4.218,0-7.839,4.649-9.691,11.4
	c-2.019-4.43-4.938-7.28-8.227-7.28c-4.012,0-7.489,4.2-9.416,10.416c-1.982-3.715-4.67-6.024-7.645-6.024
	c-4.564,0-8.48,5.382-10.153,13.052c-1.387-2.649-3.146-4.532-5.095-5.469c-0.847-0.407-1.719-0.687-2.632-0.687
	c-3.876,0-7.269,3.899-9.234,9.765c-1.779-2.389-3.931-3.807-6.259-3.807c-4.868,0-8.957,6.154-10.412,14.645
	c-0.157,0.914-0.31,1.832-0.402,2.796c-0.707-2-1.591-3.742-2.599-5.174c-0.725-1.03-1.515-1.895-2.359-2.561
	c-1.277-1.005-2.668-1.572-4.132-1.572c-1.698,0-3.29,0.789-4.719,2.13c-1.968,1.846-3.619,4.77-4.73,8.409
	c-1.702-2.085-3.703-3.337-5.864-3.337c-4.328,0-8.035,4.884-9.838,11.923c-1.874-2.853-4.204-4.625-6.77-4.625
	c-4.939,0-9.069,6.342-10.469,15.024c-0.986-0.562-2.008-0.957-3.088-0.957c-6.085,0-11.018,9.566-11.018,21.366
	c0,1.744,0.138,3.415,0.341,5.037c-1.912-3.098-4.342-5.037-7.029-5.037c-6.085,0-11.018,9.566-11.018,21.366
	c0,0.57,0.064,1.107,0.087,1.666c-1.598-1.748-3.415-2.827-5.38-2.827c-5.523,0-10.054,7.904-10.852,18.181
	c-1.752-2.276-3.856-3.609-6.123-3.609c-6.085,0-11.018,9.565-11.018,21.366c0,11.095,4.377,20.108,9.957,21.159
	c0.354,0.067,0.698,0.208,1.062,0.208C589.336,938.116,593.868,930.212,594.667,919.936z"/>
</svg>
